<svg width="552" height="101" viewBox="0 0 552 101" fill="none" xmlns="http://www.w3.org/2000/svg">
<path d="M10.453 1.89999V-0.100006H8.453V1.89999H10.453ZM48.358 7.752L46.8948 9.11545L46.8948 9.11545L48.358 7.752ZM48.358 51.243L46.8948 49.8795L46.8948 49.8795L48.358 51.243ZM25.083 57.095V55.095H23.083V57.095H25.083ZM25.083 95V97H27.083V95H25.083ZM10.453 95H8.453V97H10.453V95ZM37.319 41.8L35.8569 40.4354L35.8318 40.4623L35.8076 40.4901L37.319 41.8ZM37.319 17.195L35.8076 18.5049L35.8318 18.5327L35.8569 18.5596L37.319 17.195ZM25.083 15.2V13.2H23.083V15.2H25.083ZM25.083 43.795H23.083V45.795H25.083V43.795ZM10.453 3.89999H31.999V-0.100006H10.453V3.89999ZM31.999 3.89999C38.9238 3.89999 43.7599 5.75121 46.8948 9.11545L49.8212 6.38855C45.6854 1.95011 39.6156 -0.100006 31.999 -0.100006V3.89999ZM46.8948 9.11545C50.065 12.5176 51.811 17.6691 51.811 24.909H55.811C55.811 17.0756 53.9217 10.7891 49.8212 6.38855L46.8948 9.11545ZM51.811 24.909V34.086H55.811V24.909H51.811ZM51.811 34.086C51.811 41.3259 50.065 46.4774 46.8948 49.8795L49.8212 52.6064C53.9217 48.2059 55.811 41.9194 55.811 34.086H51.811ZM46.8948 49.8795C43.7599 53.2438 38.9238 55.095 31.999 55.095V59.095C39.6156 59.095 45.6854 57.0449 49.8212 52.6064L46.8948 49.8795ZM31.999 55.095H25.083V59.095H31.999V55.095ZM23.083 57.095V95H27.083V57.095H23.083ZM25.083 93H10.453V97H25.083V93ZM12.453 95V1.89999H8.453V95H12.453ZM31.999 45.795C34.7537 45.795 37.1745 45.0205 38.8304 43.1099L35.8076 40.4901C35.1582 41.2395 34.0323 41.795 31.999 41.795V45.795ZM38.7811 43.1646C40.5494 41.2701 41.181 38.3659 41.181 35.017H37.181C37.181 38.0521 36.5713 39.6699 35.8569 40.4354L38.7811 43.1646ZM41.181 35.017V23.978H37.181V35.017H41.181ZM41.181 23.978C41.181 20.6291 40.5494 17.7249 38.7811 15.8304L35.8569 18.5596C36.5713 19.3251 37.181 20.9429 37.181 23.978H41.181ZM38.8304 15.8851C37.1745 13.9745 34.7537 13.2 31.999 13.2V17.2C34.0323 17.2 35.1582 17.7555 35.8076 18.5049L38.8304 15.8851ZM31.999 13.2H25.083V17.2H31.999V13.2ZM23.083 15.2V43.795H27.083V15.2H23.083ZM25.083 45.795H31.999V41.795H25.083V45.795ZM81.7067 1.89999V-0.100006H79.7067V1.89999H81.7067ZM119.878 7.22L118.446 8.6162L118.455 8.62526L118.463 8.63421L119.878 7.22ZM115.489 47.386L114.741 45.5308L113.489 46.0354V47.386H115.489ZM115.489 47.652H113.489V49.1401L114.914 49.5677L115.489 47.652ZM122.937 54.169L121.101 54.9628L121.11 54.9835L121.119 55.004L122.937 54.169ZM125.464 90.212L123.475 90.4214L123.476 90.4329L125.464 90.212ZM126.794 95V97H129.871L128.621 94.1877L126.794 95ZM111.898 95L110.012 95.6656L110.483 97H111.898V95ZM108.44 57.627L106.87 58.8663L106.89 58.8911L106.91 58.9153L108.44 57.627ZM96.3367 55.1V53.1H94.3367V55.1H96.3367ZM96.3367 95V97H98.3367V95H96.3367ZM81.7067 95H79.7067V97H81.7067V95ZM108.174 39.539L106.759 38.1248L106.738 38.1462L106.717 38.1683L108.174 39.539ZM108.573 17.461L106.984 18.6759L107.006 18.7046L107.029 18.7324L108.573 17.461ZM96.3367 15.2V13.2H94.3367V15.2H96.3367ZM96.3367 41.8H94.3367V43.8H96.3367V41.8ZM81.7067 3.89999H103.386V-0.100006H81.7067V3.89999ZM103.386 3.89999C110.661 3.89999 115.522 5.61704 118.446 8.6162L121.31 5.8238C117.318 1.72962 111.184 -0.100006 103.386 -0.100006V3.89999ZM118.463 8.63421C121.398 11.5683 123.065 16.3167 123.065 23.313H127.065C127.065 15.7679 125.274 9.78767 121.292 5.80578L118.463 8.63421ZM123.065 23.313V29.032H127.065V23.313H123.065ZM123.065 29.032C123.065 33.6638 122.297 37.2617 120.898 39.9439C119.521 42.5818 117.49 44.4236 114.741 45.5308L116.236 49.2412C119.871 47.777 122.628 45.2742 124.444 41.7941C126.236 38.3583 127.065 34.0649 127.065 29.032H123.065ZM113.489 47.386V47.652H117.489V47.386H113.489ZM114.914 49.5677C117.919 50.4691 119.926 52.2458 121.101 54.9628L124.772 53.3752C123.11 49.5308 120.152 46.9629 116.063 45.7363L114.914 49.5677ZM121.119 55.004C122.46 57.9221 123.198 61.9905 123.198 67.336H127.198C127.198 61.6868 126.428 56.9773 124.754 53.334L121.119 55.004ZM123.198 67.336V83.695H127.198V67.336H123.198ZM123.198 83.695C123.198 86.3904 123.287 88.6397 123.475 90.4214L127.453 90.0026C127.286 88.415 127.198 86.3196 127.198 83.695H123.198ZM123.476 90.4329C123.678 92.2501 124.181 94.0449 124.966 95.8123L128.621 94.1877C127.988 92.7631 127.604 91.3659 127.451 89.9911L123.476 90.4329ZM126.794 93H111.898V97H126.794V93ZM113.784 94.3344C113.289 92.9332 112.972 91.6499 112.816 90.4797L108.851 91.0083C109.05 92.4981 109.442 94.0521 110.012 95.6656L113.784 94.3344ZM112.816 90.4797C112.659 89.2977 112.568 87.027 112.568 83.562H108.568C108.568 87.013 108.654 89.5303 108.851 91.0083L112.816 90.4797ZM112.568 83.562V66.538H108.568V83.562H112.568ZM112.568 66.538C112.568 62.1897 111.869 58.5946 109.97 56.3387L106.91 58.9153C107.848 60.0287 108.568 62.3743 108.568 66.538H112.568ZM110.009 56.3877C108.126 54.0016 105.021 53.1 101.391 53.1V57.1C104.5 57.1 106.094 57.883 106.87 58.8663L110.009 56.3877ZM101.391 53.1H96.3367V57.1H101.391V53.1ZM94.3367 55.1V95H98.3367V55.1H94.3367ZM96.3367 93H81.7067V97H96.3367V93ZM83.7067 95V1.89999H79.7067V95H83.7067ZM101.657 43.8C104.901 43.8 107.699 42.9615 109.63 40.9097L106.717 38.1683C105.811 39.1312 104.264 39.8 101.657 39.8V43.8ZM109.588 40.9532C111.654 38.8873 112.435 35.7019 112.435 31.958H108.435C108.435 35.3074 107.708 37.176 106.759 38.1248L109.588 40.9532ZM112.435 31.958V24.776H108.435V31.958H112.435ZM112.435 24.776C112.435 21.2479 111.801 18.2353 110.117 16.1896L107.029 18.7324C107.827 19.7014 108.435 21.5654 108.435 24.776H112.435ZM110.161 16.2461C108.506 14.0816 105.943 13.2 102.987 13.2V17.2C105.173 17.2 106.334 17.8257 106.984 18.6759L110.161 16.2461ZM102.987 13.2H96.3367V17.2H102.987V13.2ZM94.3367 15.2V41.8H98.3367V15.2H94.3367ZM96.3367 43.8H101.657V39.8H96.3367V43.8ZM166.603 1.89999V-0.100006H164.903L164.629 1.57851L166.603 1.89999ZM186.42 1.89999L188.394 1.57851L188.121 -0.100006H186.42V1.89999ZM201.582 95V97H203.934L203.556 94.6785L201.582 95ZM186.952 95L184.973 95.2848L185.219 97H186.952V95ZM184.292 76.513L186.272 76.2282L182.292 76.513H184.292ZM184.292 76.779V78.779H186.292V76.779H184.292ZM167.667 76.779V74.779H165.938L165.688 76.4901L167.667 76.779ZM165.007 95V97H166.737L166.986 95.2889L165.007 95ZM151.441 95L149.467 94.6785L149.089 97H151.441V95ZM182.563 64.144V66.144H184.867L184.544 63.8636L182.563 64.144ZM176.046 18.126L178.027 17.8456L177.783 16.126H176.046V18.126ZM175.78 18.126V16.126H174.039L173.799 17.8512L175.78 18.126ZM169.396 64.144L167.415 63.8692L167.1 66.144H169.396V64.144ZM166.603 3.89999H186.42V-0.100006H166.603V3.89999ZM184.446 2.22147L199.608 95.3215L203.556 94.6785L188.394 1.57851L184.446 2.22147ZM201.582 93H186.952V97H201.582V93ZM188.932 94.7152L186.272 76.2282L182.313 76.7978L184.973 95.2848L188.932 94.7152ZM182.292 76.513V76.779H186.292V76.513H182.292ZM184.292 74.779H167.667V78.779H184.292V74.779ZM165.688 76.4901L163.028 94.7111L166.986 95.2889L169.646 77.0679L165.688 76.4901ZM165.007 93H151.441V97H165.007V93ZM153.415 95.3215L168.577 2.22147L164.629 1.57851L149.467 94.6785L153.415 95.3215ZM184.544 63.8636L178.027 17.8456L174.066 18.4064L180.583 64.4244L184.544 63.8636ZM176.046 16.126H175.78V20.126H176.046V16.126ZM173.799 17.8512L167.415 63.8692L171.377 64.4188L177.761 18.4008L173.799 17.8512ZM169.396 66.144H182.563V62.144H169.396V66.144ZM232.892 90.345L231.414 91.692L231.422 91.7009L231.43 91.7096L232.892 90.345ZM232.892 6.555L231.43 5.19036L231.422 5.19914L231.414 5.20802L232.892 6.555ZM264.945 6.555L263.467 7.90198L263.475 7.91085L263.483 7.91963L264.945 6.555ZM270.531 33.288V35.288H272.531V33.288H270.531ZM256.699 33.288H254.699V35.288H256.699V33.288ZM256.699 60.287V58.287H254.699V60.287H256.699ZM270.531 60.287H272.531V58.287H270.531V60.287ZM264.945 90.345L263.483 88.9804L263.475 88.9891L263.467 88.998L264.945 90.345ZM248.985 94.33C242.369 94.33 237.6 92.4577 234.354 88.9804L231.43 91.7096C235.633 96.2123 241.593 98.33 248.985 98.33V94.33ZM234.371 88.998C231.173 85.4883 229.439 80.4019 229.439 73.454H225.439C225.439 81.0474 227.341 87.2217 231.414 91.692L234.371 88.998ZM229.439 73.454V23.446H225.439V73.454H229.439ZM229.439 23.446C229.439 16.4981 231.173 11.4117 234.371 7.90198L231.414 5.20802C227.341 9.67825 225.439 15.8526 225.439 23.446H229.439ZM234.355 7.91963C237.6 4.44228 242.369 2.56999 248.985 2.56999V-1.43001C241.593 -1.43001 235.633 0.687711 231.43 5.19036L234.355 7.91963ZM248.985 2.56999C255.605 2.56999 260.316 4.44309 263.467 7.90198L266.424 5.20802C262.305 0.6869 256.375 -1.43001 248.985 -1.43001V2.56999ZM263.483 7.91963C266.76 11.4302 268.531 16.5098 268.531 23.446H272.531C272.531 15.8408 270.579 9.65979 266.408 5.19036L263.483 7.91963ZM268.531 23.446V33.288H272.531V23.446H268.531ZM270.531 31.288H256.699V35.288H270.531V31.288ZM258.699 33.288V22.515H254.699V33.288H258.699ZM258.699 22.515C258.699 19.399 258.047 16.6892 256.397 14.7394C254.693 12.7255 252.227 11.87 249.384 11.87V15.87C251.419 15.87 252.61 16.4553 253.344 17.3231C254.132 18.255 254.699 19.8676 254.699 22.515H258.699ZM249.384 11.87C246.542 11.87 244.075 12.7255 242.371 14.7394C240.721 16.6892 240.069 19.399 240.069 22.515H244.069C244.069 19.8676 244.636 18.255 245.425 17.3231C246.159 16.4553 247.35 15.87 249.384 15.87V11.87ZM240.069 22.515V74.518H244.069V22.515H240.069ZM240.069 74.518C240.069 77.5957 240.724 80.2772 242.381 82.2055C244.088 84.1919 246.552 85.03 249.384 85.03V81.03C247.34 81.03 246.146 80.4495 245.415 79.5985C244.634 78.6895 244.069 77.115 244.069 74.518H240.069ZM249.384 85.03C252.217 85.03 254.68 84.1919 256.387 82.2055C258.045 80.2772 258.699 77.5957 258.699 74.518H254.699C254.699 77.115 254.135 78.6895 253.354 79.5985C252.622 80.4495 251.429 81.03 249.384 81.03V85.03ZM258.699 74.518V60.287H254.699V74.518H258.699ZM256.699 62.287H270.531V58.287H256.699V62.287ZM268.531 60.287V73.454H272.531V60.287H268.531ZM268.531 73.454C268.531 80.3902 266.76 85.4698 263.483 88.9804L266.408 91.7096C270.579 87.2402 272.531 81.0592 272.531 73.454H268.531ZM263.467 88.998C260.316 92.4569 255.605 94.33 248.985 94.33V98.33C256.375 98.33 262.305 96.2131 266.424 91.692L263.467 88.998ZM310.672 15.2H312.672V13.2H310.672V15.2ZM295.377 15.2H293.377V17.2H295.377V15.2ZM295.377 1.89999V-0.100006H293.377V1.89999H295.377ZM340.597 1.89999H342.597V-0.100006H340.597V1.89999ZM340.597 15.2V17.2H342.597V15.2H340.597ZM325.302 15.2V13.2H323.302V15.2H325.302ZM325.302 95V97H327.302V95H325.302ZM310.672 95H308.672V97H310.672V95ZM310.672 13.2H295.377V17.2H310.672V13.2ZM297.377 15.2V1.89999H293.377V15.2H297.377ZM295.377 3.89999H340.597V-0.100006H295.377V3.89999ZM338.597 1.89999V15.2H342.597V1.89999H338.597ZM340.597 13.2H325.302V17.2H340.597V13.2ZM323.302 15.2V95H327.302V15.2H323.302ZM325.302 93H310.672V97H325.302V93ZM312.672 95V15.2H308.672V95H312.672ZM367.631 1.89999V-0.100006H365.631V1.89999H367.631ZM382.261 1.89999H384.261V-0.100006H382.261V1.89999ZM382.261 95V97H384.261V95H382.261ZM367.631 95H365.631V97H367.631V95ZM367.631 3.89999H382.261V-0.100006H367.631V3.89999ZM380.261 1.89999V95H384.261V1.89999H380.261ZM382.261 93H367.631V97H382.261V93ZM369.631 95V1.89999H365.631V95H369.631ZM417.69 90.345L416.211 91.692L416.219 91.7009L416.228 91.7096L417.69 90.345ZM417.69 6.555L416.228 5.19036L416.219 5.19914L416.211 5.20802L417.69 6.555ZM449.743 6.555L448.264 7.90198L448.272 7.91085L448.281 7.91963L449.743 6.555ZM455.329 33.288V35.288H457.329V33.288H455.329ZM441.497 33.288H439.497V35.288H441.497V33.288ZM441.497 60.287V58.287H439.497V60.287H441.497ZM455.329 60.287H457.329V58.287H455.329V60.287ZM449.743 90.345L448.281 88.9804L448.272 88.9891L448.264 88.998L449.743 90.345ZM433.783 94.33C427.166 94.33 422.397 92.4577 419.152 88.9804L416.228 91.7096C420.43 96.2123 426.39 98.33 433.783 98.33V94.33ZM419.168 88.998C415.97 85.4883 414.237 80.4019 414.237 73.454H410.237C410.237 81.0474 412.138 87.2217 416.211 91.692L419.168 88.998ZM414.237 73.454V23.446H410.237V73.454H414.237ZM414.237 23.446C414.237 16.4981 415.97 11.4117 419.168 7.90198L416.211 5.20802C412.138 9.67825 410.237 15.8526 410.237 23.446H414.237ZM419.152 7.91963C422.397 4.44228 427.166 2.56999 433.783 2.56999V-1.43001C426.39 -1.43001 420.43 0.687711 416.228 5.19036L419.152 7.91963ZM433.783 2.56999C440.402 2.56999 445.113 4.44309 448.264 7.90198L451.221 5.20802C447.102 0.6869 441.173 -1.43001 433.783 -1.43001V2.56999ZM448.281 7.91963C451.557 11.4302 453.329 16.5098 453.329 23.446H457.329C457.329 15.8408 455.376 9.65979 451.205 5.19036L448.281 7.91963ZM453.329 23.446V33.288H457.329V23.446H453.329ZM455.329 31.288H441.497V35.288H455.329V31.288ZM443.497 33.288V22.515H439.497V33.288H443.497ZM443.497 22.515C443.497 19.399 442.845 16.6892 441.195 14.7394C439.491 12.7255 437.024 11.87 434.182 11.87V15.87C436.216 15.87 437.407 16.4553 438.141 17.3231C438.93 18.255 439.497 19.8676 439.497 22.515H443.497ZM434.182 11.87C431.339 11.87 428.873 12.7255 427.169 14.7394C425.519 16.6892 424.867 19.399 424.867 22.515H428.867C428.867 19.8676 429.434 18.255 430.222 17.3231C430.957 16.4553 432.147 15.87 434.182 15.87V11.87ZM424.867 22.515V74.518H428.867V22.515H424.867ZM424.867 74.518C424.867 77.5957 425.521 80.2772 427.179 82.2055C428.886 84.1919 431.349 85.03 434.182 85.03V81.03C432.137 81.03 430.944 80.4495 430.212 79.5985C429.431 78.6895 428.867 77.115 428.867 74.518H424.867ZM434.182 85.03C437.014 85.03 439.478 84.1919 441.185 82.2055C442.842 80.2772 443.497 77.5957 443.497 74.518H439.497C439.497 77.115 438.932 78.6895 438.151 79.5985C437.42 80.4495 436.226 81.03 434.182 81.03V85.03ZM443.497 74.518V60.287H439.497V74.518H443.497ZM441.497 62.287H455.329V58.287H441.497V62.287ZM453.329 60.287V73.454H457.329V60.287H453.329ZM453.329 73.454C453.329 80.3902 451.557 85.4698 448.281 88.9804L451.205 91.7096C455.376 87.2402 457.329 81.0592 457.329 73.454H453.329ZM448.264 88.998C445.113 92.4569 440.402 94.33 433.783 94.33V98.33C441.173 98.33 447.102 96.2131 451.221 91.692L448.264 88.998ZM484.032 1.89999V-0.100006H482.032V1.89999H484.032ZM523.932 1.89999H525.932V-0.100006H523.932V1.89999ZM523.932 15.2V17.2H525.932V15.2H523.932ZM498.662 15.2V13.2H496.662V15.2H498.662ZM498.662 39.805H496.662V41.805H498.662V39.805ZM518.745 39.805H520.745V37.805H518.745V39.805ZM518.745 53.105V55.105H520.745V53.105H518.745ZM498.662 53.105V51.105H496.662V53.105H498.662ZM498.662 81.7H496.662V83.7H498.662V81.7ZM523.932 81.7H525.932V79.7H523.932V81.7ZM523.932 95V97H525.932V95H523.932ZM484.032 95H482.032V97H484.032V95ZM484.032 3.89999H523.932V-0.100006H484.032V3.89999ZM521.932 1.89999V15.2H525.932V1.89999H521.932ZM523.932 13.2H498.662V17.2H523.932V13.2ZM496.662 15.2V39.805H500.662V15.2H496.662ZM498.662 41.805H518.745V37.805H498.662V41.805ZM516.745 39.805V53.105H520.745V39.805H516.745ZM518.745 51.105H498.662V55.105H518.745V51.105ZM496.662 53.105V81.7H500.662V53.105H496.662ZM498.662 83.7H523.932V79.7H498.662V83.7ZM521.932 81.7V95H525.932V81.7H521.932ZM523.932 93H484.032V97H523.932V93ZM486.032 95V1.89999H482.032V95H486.032Z" fill="black"/>
<path d="M5.453 5.89999H26.999C34.2697 5.89999 39.7227 7.85066 43.358 11.752C46.9933 15.6533 48.811 21.3723 48.811 28.909V38.086C48.811 45.6227 46.9933 51.3417 43.358 55.243C39.7227 59.1443 34.2697 61.095 26.999 61.095H20.083V99H5.453V5.89999ZM26.999 47.795C29.393 47.795 31.1663 47.13 32.319 45.8C33.5603 44.47 34.181 42.209 34.181 39.017V27.978C34.181 24.786 33.5603 22.525 32.319 21.195C31.1663 19.865 29.393 19.2 26.999 19.2H20.083V47.795H26.999ZM76.7067 5.89999H98.3857C105.922 5.89999 111.42 7.67333 114.878 11.22C118.336 14.678 120.065 20.0423 120.065 27.313V33.032C120.065 42.6967 116.873 48.8147 110.489 51.386V51.652C114.035 52.716 116.518 54.8883 117.937 58.169C119.444 61.4497 120.198 65.8387 120.198 71.336V87.695C120.198 90.355 120.286 92.5273 120.464 94.212C120.641 95.808 121.084 97.404 121.794 99H106.898C106.366 97.4927 106.011 96.074 105.834 94.744C105.656 93.414 105.568 91.02 105.568 87.562V70.538C105.568 66.282 104.858 63.3117 103.44 61.627C102.11 59.9423 99.76 59.1 96.3907 59.1H91.3367V99H76.7067V5.89999ZM96.6567 45.8C99.5827 45.8 101.755 45.0463 103.174 43.539C104.681 42.0317 105.435 39.5047 105.435 35.958V28.776C105.435 25.4067 104.814 22.9683 103.573 21.461C102.42 19.9537 100.558 19.2 97.9867 19.2H91.3367V45.8H96.6567ZM161.603 5.89999H181.42L196.582 99H181.952L179.292 80.513V80.779H162.667L160.007 99H146.441L161.603 5.89999ZM177.563 68.144L171.046 22.126H170.78L164.396 68.144H177.563ZM243.985 100.33C236.981 100.33 231.616 98.335 227.892 94.345C224.257 90.355 222.439 84.7247 222.439 77.454V27.446C222.439 20.1753 224.257 14.545 227.892 10.555C231.616 6.565 236.981 4.56999 243.985 4.56999C250.99 4.56999 256.31 6.565 259.945 10.555C263.669 14.545 265.531 20.1753 265.531 27.446V37.288H251.699V26.515C251.699 20.7517 249.261 17.87 244.384 17.87C239.508 17.87 237.069 20.7517 237.069 26.515V78.518C237.069 84.1927 239.508 87.03 244.384 87.03C249.261 87.03 251.699 84.1927 251.699 78.518V64.287H265.531V77.454C265.531 84.7247 263.669 90.355 259.945 94.345C256.31 98.335 250.99 100.33 243.985 100.33ZM305.672 19.2H290.377V5.89999H335.597V19.2H320.302V99H305.672V19.2ZM362.631 5.89999H377.261V99H362.631V5.89999ZM428.783 100.33C421.778 100.33 416.414 98.335 412.69 94.345C409.054 90.355 407.237 84.7247 407.237 77.454V27.446C407.237 20.1753 409.054 14.545 412.69 10.555C416.414 6.565 421.778 4.56999 428.783 4.56999C435.787 4.56999 441.107 6.565 444.743 10.555C448.467 14.545 450.329 20.1753 450.329 27.446V37.288H436.497V26.515C436.497 20.7517 434.058 17.87 429.182 17.87C424.305 17.87 421.867 20.7517 421.867 26.515V78.518C421.867 84.1927 424.305 87.03 429.182 87.03C434.058 87.03 436.497 84.1927 436.497 78.518V64.287H450.329V77.454C450.329 84.7247 448.467 90.355 444.743 94.345C441.107 98.335 435.787 100.33 428.783 100.33ZM479.032 5.89999H518.932V19.2H493.662V43.805H513.745V57.105H493.662V85.7H518.932V99H479.032V5.89999Z" fill="#4C9BC8"/>
<path d="M5.453 5.89999V3.89999H3.453V5.89999H5.453ZM43.358 11.752L41.8948 13.1154L41.8948 13.1154L43.358 11.752ZM43.358 55.243L41.8948 53.8795L41.8948 53.8795L43.358 55.243ZM20.083 61.095V59.095H18.083V61.095H20.083ZM20.083 99V101H22.083V99H20.083ZM5.453 99H3.453V101H5.453V99ZM32.319 45.8L30.8569 44.4354L30.8318 44.4623L30.8076 44.4901L32.319 45.8ZM32.319 21.195L30.8076 22.5049L30.8318 22.5327L30.8569 22.5596L32.319 21.195ZM20.083 19.2V17.2H18.083V19.2H20.083ZM20.083 47.795H18.083V49.795H20.083V47.795ZM5.453 7.89999H26.999V3.89999H5.453V7.89999ZM26.999 7.89999C33.9238 7.89999 38.7599 9.75121 41.8948 13.1154L44.8212 10.3885C40.6854 5.95011 34.6156 3.89999 26.999 3.89999V7.89999ZM41.8948 13.1154C45.065 16.5176 46.811 21.6691 46.811 28.909H50.811C50.811 21.0756 48.9217 14.7891 44.8212 10.3885L41.8948 13.1154ZM46.811 28.909V38.086H50.811V28.909H46.811ZM46.811 38.086C46.811 45.3259 45.065 50.4774 41.8948 53.8795L44.8212 56.6064C48.9217 52.2059 50.811 45.9194 50.811 38.086H46.811ZM41.8948 53.8795C38.7599 57.2438 33.9238 59.095 26.999 59.095V63.095C34.6156 63.095 40.6854 61.0449 44.8212 56.6064L41.8948 53.8795ZM26.999 59.095H20.083V63.095H26.999V59.095ZM18.083 61.095V99H22.083V61.095H18.083ZM20.083 97H5.453V101H20.083V97ZM7.453 99V5.89999H3.453V99H7.453ZM26.999 49.795C29.7537 49.795 32.1745 49.0205 33.8304 47.1099L30.8076 44.4901C30.1582 45.2395 29.0323 45.795 26.999 45.795V49.795ZM33.7811 47.1646C35.5494 45.2701 36.181 42.3659 36.181 39.017H32.181C32.181 42.0521 31.5713 43.6699 30.8569 44.4354L33.7811 47.1646ZM36.181 39.017V27.978H32.181V39.017H36.181ZM36.181 27.978C36.181 24.6291 35.5494 21.7249 33.7811 19.8304L30.8569 22.5596C31.5713 23.3251 32.181 24.9429 32.181 27.978H36.181ZM33.8304 19.8851C32.1745 17.9745 29.7537 17.2 26.999 17.2V21.2C29.0323 21.2 30.1582 21.7555 30.8076 22.5049L33.8304 19.8851ZM26.999 17.2H20.083V21.2H26.999V17.2ZM18.083 19.2V47.795H22.083V19.2H18.083ZM20.083 49.795H26.999V45.795H20.083V49.795ZM76.7067 5.89999V3.89999H74.7067V5.89999H76.7067ZM114.878 11.22L113.446 12.6162L113.455 12.6253L113.463 12.6342L114.878 11.22ZM110.489 51.386L109.741 49.5308L108.489 50.0354V51.386H110.489ZM110.489 51.652H108.489V53.1401L109.914 53.5677L110.489 51.652ZM117.937 58.169L116.101 58.9628L116.11 58.9835L116.119 59.004L117.937 58.169ZM120.464 94.212L118.475 94.4214L118.476 94.4329L120.464 94.212ZM121.794 99V101H124.871L123.621 98.1877L121.794 99ZM106.898 99L105.012 99.6656L105.483 101H106.898V99ZM103.44 61.627L101.87 62.8663L101.89 62.8911L101.91 62.9153L103.44 61.627ZM91.3367 59.1V57.1H89.3367V59.1H91.3367ZM91.3367 99V101H93.3367V99H91.3367ZM76.7067 99H74.7067V101H76.7067V99ZM103.174 43.539L101.759 42.1248L101.738 42.1462L101.717 42.1683L103.174 43.539ZM103.573 21.461L101.984 22.6759L102.006 22.7046L102.029 22.7324L103.573 21.461ZM91.3367 19.2V17.2H89.3367V19.2H91.3367ZM91.3367 45.8H89.3367V47.8H91.3367V45.8ZM76.7067 7.89999H98.3857V3.89999H76.7067V7.89999ZM98.3857 7.89999C105.661 7.89999 110.522 9.61704 113.446 12.6162L116.31 9.8238C112.318 5.72962 106.184 3.89999 98.3857 3.89999V7.89999ZM113.463 12.6342C116.398 15.5683 118.065 20.3167 118.065 27.313H122.065C122.065 19.7679 120.274 13.7877 116.292 9.80578L113.463 12.6342ZM118.065 27.313V33.032H122.065V27.313H118.065ZM118.065 33.032C118.065 37.6638 117.297 41.2617 115.898 43.9439C114.521 46.5818 112.49 48.4236 109.741 49.5308L111.236 53.2412C114.871 51.777 117.628 49.2742 119.444 45.7941C121.236 42.3583 122.065 38.0649 122.065 33.032H118.065ZM108.489 51.386V51.652H112.489V51.386H108.489ZM109.914 53.5677C112.919 54.4691 114.926 56.2458 116.101 58.9628L119.772 57.3752C118.11 53.5308 115.152 50.9629 111.063 49.7363L109.914 53.5677ZM116.119 59.004C117.46 61.9221 118.198 65.9905 118.198 71.336H122.198C122.198 65.6868 121.428 60.9773 119.754 57.334L116.119 59.004ZM118.198 71.336V87.695H122.198V71.336H118.198ZM118.198 87.695C118.198 90.3904 118.287 92.6397 118.475 94.4214L122.453 94.0026C122.286 92.415 122.198 90.3196 122.198 87.695H118.198ZM118.476 94.4329C118.678 96.2501 119.181 98.0449 119.966 99.8123L123.621 98.1877C122.988 96.7631 122.604 95.3659 122.451 93.9911L118.476 94.4329ZM121.794 97H106.898V101H121.794V97ZM108.784 98.3344C108.289 96.9332 107.972 95.6499 107.816 94.4797L103.851 95.0083C104.05 96.4981 104.442 98.0521 105.012 99.6656L108.784 98.3344ZM107.816 94.4797C107.659 93.2977 107.568 91.027 107.568 87.562H103.568C103.568 91.013 103.654 93.5303 103.851 95.0083L107.816 94.4797ZM107.568 87.562V70.538H103.568V87.562H107.568ZM107.568 70.538C107.568 66.1897 106.869 62.5946 104.97 60.3387L101.91 62.9153C102.848 64.0287 103.568 66.3743 103.568 70.538H107.568ZM105.009 60.3877C103.126 58.0016 100.021 57.1 96.3907 57.1V61.1C99.4995 61.1 101.094 61.883 101.87 62.8663L105.009 60.3877ZM96.3907 57.1H91.3367V61.1H96.3907V57.1ZM89.3367 59.1V99H93.3367V59.1H89.3367ZM91.3367 97H76.7067V101H91.3367V97ZM78.7067 99V5.89999H74.7067V99H78.7067ZM96.6567 47.8C99.9013 47.8 102.699 46.9615 104.63 44.9097L101.717 42.1683C100.811 43.1312 99.2641 43.8 96.6567 43.8V47.8ZM104.588 44.9532C106.654 42.8873 107.435 39.7019 107.435 35.958H103.435C103.435 39.3074 102.708 41.176 101.759 42.1248L104.588 44.9532ZM107.435 35.958V28.776H103.435V35.958H107.435ZM107.435 28.776C107.435 25.2479 106.801 22.2353 105.117 20.1896L102.029 22.7324C102.827 23.7014 103.435 25.5654 103.435 28.776H107.435ZM105.161 20.2461C103.506 18.0816 100.943 17.2 97.9867 17.2V21.2C100.173 21.2 101.334 21.8257 101.984 22.6759L105.161 20.2461ZM97.9867 17.2H91.3367V21.2H97.9867V17.2ZM89.3367 19.2V45.8H93.3367V19.2H89.3367ZM91.3367 47.8H96.6567V43.8H91.3367V47.8ZM161.603 5.89999V3.89999H159.903L159.629 5.57851L161.603 5.89999ZM181.42 5.89999L183.394 5.57851L183.121 3.89999H181.42V5.89999ZM196.582 99V101H198.934L198.556 98.6785L196.582 99ZM181.952 99L179.973 99.2848L180.219 101H181.952V99ZM179.292 80.513L181.272 80.2282L177.292 80.513H179.292ZM179.292 80.779V82.779H181.292V80.779H179.292ZM162.667 80.779V78.779H160.938L160.688 80.4901L162.667 80.779ZM160.007 99V101H161.737L161.986 99.2889L160.007 99ZM146.441 99L144.467 98.6785L144.089 101H146.441V99ZM177.563 68.144V70.144H179.867L179.544 67.8636L177.563 68.144ZM171.046 22.126L173.027 21.8456L172.783 20.126H171.046V22.126ZM170.78 22.126V20.126H169.039L168.799 21.8512L170.78 22.126ZM164.396 68.144L162.415 67.8692L162.1 70.144H164.396V68.144ZM161.603 7.89999H181.42V3.89999H161.603V7.89999ZM179.446 6.22147L194.608 99.3215L198.556 98.6785L183.394 5.57851L179.446 6.22147ZM196.582 97H181.952V101H196.582V97ZM183.932 98.7152L181.272 80.2282L177.313 80.7978L179.973 99.2848L183.932 98.7152ZM177.292 80.513V80.779H181.292V80.513H177.292ZM179.292 78.779H162.667V82.779H179.292V78.779ZM160.688 80.4901L158.028 98.7111L161.986 99.2889L164.646 81.0679L160.688 80.4901ZM160.007 97H146.441V101H160.007V97ZM148.415 99.3215L163.577 6.22147L159.629 5.57851L144.467 98.6785L148.415 99.3215ZM179.544 67.8636L173.027 21.8456L169.066 22.4064L175.583 68.4244L179.544 67.8636ZM171.046 20.126H170.78V24.126H171.046V20.126ZM168.799 21.8512L162.415 67.8692L166.377 68.4188L172.761 22.4008L168.799 21.8512ZM164.396 70.144H177.563V66.144H164.396V70.144ZM227.892 94.345L226.414 95.692L226.422 95.7009L226.43 95.7096L227.892 94.345ZM227.892 10.555L226.43 9.19036L226.422 9.19914L226.414 9.20802L227.892 10.555ZM259.945 10.555L258.467 11.902L258.475 11.9109L258.483 11.9196L259.945 10.555ZM265.531 37.288V39.288H267.531V37.288H265.531ZM251.699 37.288H249.699V39.288H251.699V37.288ZM251.699 64.287V62.287H249.699V64.287H251.699ZM265.531 64.287H267.531V62.287H265.531V64.287ZM259.945 94.345L258.483 92.9804L258.475 92.9891L258.467 92.998L259.945 94.345ZM243.985 98.33C237.369 98.33 232.6 96.4577 229.354 92.9804L226.43 95.7096C230.633 100.212 236.593 102.33 243.985 102.33V98.33ZM229.371 92.998C226.173 89.4883 224.439 84.4019 224.439 77.454H220.439C220.439 85.0474 222.341 91.2217 226.414 95.692L229.371 92.998ZM224.439 77.454V27.446H220.439V77.454H224.439ZM224.439 27.446C224.439 20.4981 226.173 15.4117 229.371 11.902L226.414 9.20802C222.341 13.6783 220.439 19.8526 220.439 27.446H224.439ZM229.355 11.9196C232.6 8.44228 237.369 6.56999 243.985 6.56999V2.56999C236.593 2.56999 230.633 4.68771 226.43 9.19036L229.355 11.9196ZM243.985 6.56999C250.605 6.56999 255.316 8.44309 258.467 11.902L261.424 9.20802C257.305 4.6869 251.375 2.56999 243.985 2.56999V6.56999ZM258.483 11.9196C261.76 15.4302 263.531 20.5098 263.531 27.446H267.531C267.531 19.8408 265.579 13.6598 261.408 9.19036L258.483 11.9196ZM263.531 27.446V37.288H267.531V27.446H263.531ZM265.531 35.288H251.699V39.288H265.531V35.288ZM253.699 37.288V26.515H249.699V37.288H253.699ZM253.699 26.515C253.699 23.399 253.047 20.6892 251.397 18.7394C249.693 16.7255 247.227 15.87 244.384 15.87V19.87C246.419 19.87 247.61 20.4553 248.344 21.3231C249.132 22.255 249.699 23.8676 249.699 26.515H253.699ZM244.384 15.87C241.542 15.87 239.075 16.7255 237.371 18.7394C235.721 20.6892 235.069 23.399 235.069 26.515H239.069C239.069 23.8676 239.636 22.255 240.425 21.3231C241.159 20.4553 242.35 19.87 244.384 19.87V15.87ZM235.069 26.515V78.518H239.069V26.515H235.069ZM235.069 78.518C235.069 81.5957 235.724 84.2772 237.381 86.2055C239.088 88.1919 241.552 89.03 244.384 89.03V85.03C242.34 85.03 241.146 84.4495 240.415 83.5985C239.634 82.6895 239.069 81.115 239.069 78.518H235.069ZM244.384 89.03C247.217 89.03 249.68 88.1919 251.387 86.2055C253.045 84.2772 253.699 81.5957 253.699 78.518H249.699C249.699 81.115 249.135 82.6895 248.354 83.5985C247.622 84.4495 246.429 85.03 244.384 85.03V89.03ZM253.699 78.518V64.287H249.699V78.518H253.699ZM251.699 66.287H265.531V62.287H251.699V66.287ZM263.531 64.287V77.454H267.531V64.287H263.531ZM263.531 77.454C263.531 84.3902 261.76 89.4698 258.483 92.9804L261.408 95.7096C265.579 91.2402 267.531 85.0592 267.531 77.454H263.531ZM258.467 92.998C255.316 96.4569 250.605 98.33 243.985 98.33V102.33C251.375 102.33 257.305 100.213 261.424 95.692L258.467 92.998ZM305.672 19.2H307.672V17.2H305.672V19.2ZM290.377 19.2H288.377V21.2H290.377V19.2ZM290.377 5.89999V3.89999H288.377V5.89999H290.377ZM335.597 5.89999H337.597V3.89999H335.597V5.89999ZM335.597 19.2V21.2H337.597V19.2H335.597ZM320.302 19.2V17.2H318.302V19.2H320.302ZM320.302 99V101H322.302V99H320.302ZM305.672 99H303.672V101H305.672V99ZM305.672 17.2H290.377V21.2H305.672V17.2ZM292.377 19.2V5.89999H288.377V19.2H292.377ZM290.377 7.89999H335.597V3.89999H290.377V7.89999ZM333.597 5.89999V19.2H337.597V5.89999H333.597ZM335.597 17.2H320.302V21.2H335.597V17.2ZM318.302 19.2V99H322.302V19.2H318.302ZM320.302 97H305.672V101H320.302V97ZM307.672 99V19.2H303.672V99H307.672ZM362.631 5.89999V3.89999H360.631V5.89999H362.631ZM377.261 5.89999H379.261V3.89999H377.261V5.89999ZM377.261 99V101H379.261V99H377.261ZM362.631 99H360.631V101H362.631V99ZM362.631 7.89999H377.261V3.89999H362.631V7.89999ZM375.261 5.89999V99H379.261V5.89999H375.261ZM377.261 97H362.631V101H377.261V97ZM364.631 99V5.89999H360.631V99H364.631ZM412.69 94.345L411.211 95.692L411.219 95.7009L411.228 95.7096L412.69 94.345ZM412.69 10.555L411.228 9.19036L411.219 9.19914L411.211 9.20802L412.69 10.555ZM444.743 10.555L443.264 11.902L443.272 11.9109L443.281 11.9196L444.743 10.555ZM450.329 37.288V39.288H452.329V37.288H450.329ZM436.497 37.288H434.497V39.288H436.497V37.288ZM436.497 64.287V62.287H434.497V64.287H436.497ZM450.329 64.287H452.329V62.287H450.329V64.287ZM444.743 94.345L443.281 92.9804L443.272 92.9891L443.264 92.998L444.743 94.345ZM428.783 98.33C422.166 98.33 417.397 96.4577 414.152 92.9804L411.228 95.7096C415.43 100.212 421.39 102.33 428.783 102.33V98.33ZM414.168 92.998C410.97 89.4883 409.237 84.4019 409.237 77.454H405.237C405.237 85.0474 407.138 91.2217 411.211 95.692L414.168 92.998ZM409.237 77.454V27.446H405.237V77.454H409.237ZM409.237 27.446C409.237 20.4981 410.97 15.4117 414.168 11.902L411.211 9.20802C407.138 13.6783 405.237 19.8526 405.237 27.446H409.237ZM414.152 11.9196C417.397 8.44228 422.166 6.56999 428.783 6.56999V2.56999C421.39 2.56999 415.43 4.68771 411.228 9.19036L414.152 11.9196ZM428.783 6.56999C435.402 6.56999 440.113 8.44309 443.264 11.902L446.221 9.20802C442.102 4.6869 436.173 2.56999 428.783 2.56999V6.56999ZM443.281 11.9196C446.557 15.4302 448.329 20.5098 448.329 27.446H452.329C452.329 19.8408 450.376 13.6598 446.205 9.19036L443.281 11.9196ZM448.329 27.446V37.288H452.329V27.446H448.329ZM450.329 35.288H436.497V39.288H450.329V35.288ZM438.497 37.288V26.515H434.497V37.288H438.497ZM438.497 26.515C438.497 23.399 437.845 20.6892 436.195 18.7394C434.491 16.7255 432.024 15.87 429.182 15.87V19.87C431.216 19.87 432.407 20.4553 433.141 21.3231C433.93 22.255 434.497 23.8676 434.497 26.515H438.497ZM429.182 15.87C426.339 15.87 423.873 16.7255 422.169 18.7394C420.519 20.6892 419.867 23.399 419.867 26.515H423.867C423.867 23.8676 424.434 22.255 425.222 21.3231C425.957 20.4553 427.147 19.87 429.182 19.87V15.87ZM419.867 26.515V78.518H423.867V26.515H419.867ZM419.867 78.518C419.867 81.5957 420.521 84.2772 422.179 86.2055C423.886 88.1919 426.349 89.03 429.182 89.03V85.03C427.137 85.03 425.944 84.4495 425.212 83.5985C424.431 82.6895 423.867 81.115 423.867 78.518H419.867ZM429.182 89.03C432.014 89.03 434.478 88.1919 436.185 86.2055C437.842 84.2772 438.497 81.5957 438.497 78.518H434.497C434.497 81.115 433.932 82.6895 433.151 83.5985C432.42 84.4495 431.226 85.03 429.182 85.03V89.03ZM438.497 78.518V64.287H434.497V78.518H438.497ZM436.497 66.287H450.329V62.287H436.497V66.287ZM448.329 64.287V77.454H452.329V64.287H448.329ZM448.329 77.454C448.329 84.3902 446.557 89.4698 443.281 92.9804L446.205 95.7096C450.376 91.2402 452.329 85.0592 452.329 77.454H448.329ZM443.264 92.998C440.113 96.4569 435.402 98.33 428.783 98.33V102.33C436.173 102.33 442.102 100.213 446.221 95.692L443.264 92.998ZM479.032 5.89999V3.89999H477.032V5.89999H479.032ZM518.932 5.89999H520.932V3.89999H518.932V5.89999ZM518.932 19.2V21.2H520.932V19.2H518.932ZM493.662 19.2V17.2H491.662V19.2H493.662ZM493.662 43.805H491.662V45.805H493.662V43.805ZM513.745 43.805H515.745V41.805H513.745V43.805ZM513.745 57.105V59.105H515.745V57.105H513.745ZM493.662 57.105V55.105H491.662V57.105H493.662ZM493.662 85.7H491.662V87.7H493.662V85.7ZM518.932 85.7H520.932V83.7H518.932V85.7ZM518.932 99V101H520.932V99H518.932ZM479.032 99H477.032V101H479.032V99ZM479.032 7.89999H518.932V3.89999H479.032V7.89999ZM516.932 5.89999V19.2H520.932V5.89999H516.932ZM518.932 17.2H493.662V21.2H518.932V17.2ZM491.662 19.2V43.805H495.662V19.2H491.662ZM493.662 45.805H513.745V41.805H493.662V45.805ZM511.745 43.805V57.105H515.745V43.805H511.745ZM513.745 55.105H493.662V59.105H513.745V55.105ZM491.662 57.105V85.7H495.662V57.105H491.662ZM493.662 87.7H518.932V83.7H493.662V87.7ZM516.932 85.7V99H520.932V85.7H516.932ZM518.932 97H479.032V101H518.932V97ZM481.032 99V5.89999H477.032V99H481.032Z" fill="black"/>
</svg>
