<svg width="750" height="101" viewBox="0 0 750 101" fill="none" xmlns="http://www.w3.org/2000/svg">
<path d="M10.453 1.89999V-0.100006H8.453V1.89999H10.453ZM25.083 1.89999H27.083V-0.100006H25.083V1.89999ZM25.083 81.7H23.083V83.7H25.083V81.7ZM49.156 81.7H51.156V79.7H49.156V81.7ZM49.156 95V97H51.156V95H49.156ZM10.453 95H8.453V97H10.453V95ZM10.453 3.89999H25.083V-0.100006H10.453V3.89999ZM23.083 1.89999V81.7H27.083V1.89999H23.083ZM25.083 83.7H49.156V79.7H25.083V83.7ZM47.156 81.7V95H51.156V81.7H47.156ZM49.156 93H10.453V97H49.156V93ZM12.453 95V1.89999H8.453V95H12.453ZM80.2572 90.212L81.7183 88.8462L80.2572 90.212ZM80.2572 6.688L81.7183 8.05376L80.2572 6.688ZM113.241 6.688L111.78 8.05376L113.241 6.688ZM113.241 90.212L111.78 88.8462L113.241 90.212ZM96.7492 94.33C89.9533 94.33 85.0517 92.4122 81.7183 88.8462L78.7962 91.5778C83.0881 96.1691 89.1811 98.33 96.7492 98.33V94.33ZM81.7183 88.8462C78.3544 85.2477 76.5382 80.0361 76.5382 72.922H72.5382C72.5382 80.7039 74.5347 87.019 78.7962 91.5778L81.7183 88.8462ZM76.5382 72.922V23.978H72.5382V72.922H76.5382ZM76.5382 23.978C76.5382 16.8639 78.3544 11.6523 81.7183 8.05376L78.7962 5.32223C74.5347 9.88099 72.5382 16.1961 72.5382 23.978H76.5382ZM81.7183 8.05376C85.0517 4.48776 89.9533 2.57 96.7492 2.57V-1.43C89.1811 -1.43 83.0881 0.730896 78.7962 5.32223L81.7183 8.05376ZM96.7492 2.57C103.545 2.57 108.447 4.48776 111.78 8.05376L114.702 5.32223C110.41 0.730896 104.317 -1.43 96.7492 -1.43V2.57ZM111.78 8.05376C115.144 11.6523 116.96 16.8639 116.96 23.978H120.96C120.96 16.1961 118.964 9.88099 114.702 5.32223L111.78 8.05376ZM116.96 23.978V72.922H120.96V23.978H116.96ZM116.96 72.922C116.96 80.0361 115.144 85.2477 111.78 88.8462L114.702 91.5778C118.964 87.019 120.96 80.7039 120.96 72.922H116.96ZM111.78 88.8462C108.447 92.4122 103.545 94.33 96.7492 94.33V98.33C104.317 98.33 110.41 96.1691 114.702 91.5778L111.78 88.8462ZM96.7492 85.03C99.6959 85.03 102.234 84.1199 103.977 82.0095C105.66 79.9723 106.33 77.1372 106.33 73.853H102.33C102.33 76.6868 101.737 78.4402 100.893 79.462C100.109 80.4106 98.8566 81.03 96.7492 81.03V85.03ZM106.33 73.853V23.047H102.33V73.853H106.33ZM106.33 23.047C106.33 19.7628 105.66 16.9277 103.977 14.8905C102.234 12.7801 99.6959 11.87 96.7492 11.87V15.87C98.8566 15.87 100.109 16.4894 100.893 17.438C101.737 18.4598 102.33 20.2132 102.33 23.047H106.33ZM96.7492 11.87C93.8026 11.87 91.2649 12.7801 89.5215 14.8905C87.8387 16.9277 87.1682 19.7628 87.1682 23.047H91.1682C91.1682 20.2132 91.7613 18.4598 92.6054 17.438C93.3891 16.4894 94.6419 15.87 96.7492 15.87V11.87ZM87.1682 23.047V73.853H91.1682V23.047H87.1682ZM87.1682 73.853C87.1682 77.1372 87.8387 79.9723 89.5215 82.0095C91.2649 84.1199 93.8026 85.03 96.7492 85.03V81.03C94.6419 81.03 93.3891 80.4106 92.6054 79.462C91.7613 78.4402 91.1682 76.6868 91.1682 73.853H87.1682ZM148.804 1.89999V-0.100006H146.804V1.89999H148.804ZM186.975 7.22L185.543 8.6162L185.552 8.62526L185.561 8.63421L186.975 7.22ZM182.586 47.386L181.839 45.5308L180.586 46.0354V47.386H182.586ZM182.586 47.652H180.586V49.1401L182.011 49.5677L182.586 47.652ZM190.034 54.169L188.198 54.9628L188.207 54.9835L188.217 55.004L190.034 54.169ZM192.561 90.212L190.572 90.4214L190.573 90.4329L192.561 90.212ZM193.891 95V97H196.969L195.719 94.1877L193.891 95ZM178.995 95L177.109 95.6656L177.58 97H178.995V95ZM175.537 57.627L173.967 58.8663L173.987 58.8911L174.007 58.9153L175.537 57.627ZM163.434 55.1V53.1H161.434V55.1H163.434ZM163.434 95V97H165.434V95H163.434ZM148.804 95H146.804V97H148.804V95ZM175.271 39.539L173.857 38.1248L173.836 38.1462L173.815 38.1683L175.271 39.539ZM175.67 17.461L174.081 18.6759L174.103 18.7046L174.126 18.7324L175.67 17.461ZM163.434 15.2V13.2H161.434V15.2H163.434ZM163.434 41.8H161.434V43.8H163.434V41.8ZM148.804 3.89999H170.483V-0.100006H148.804V3.89999ZM170.483 3.89999C177.758 3.89999 182.619 5.61704 185.543 8.6162L188.407 5.8238C184.415 1.72961 178.282 -0.100006 170.483 -0.100006V3.89999ZM185.561 8.63421C188.495 11.5683 190.162 16.3167 190.162 23.313H194.162C194.162 15.7679 192.371 9.78767 188.389 5.80578L185.561 8.63421ZM190.162 23.313V29.032H194.162V23.313H190.162ZM190.162 29.032C190.162 33.6638 189.394 37.2617 187.995 39.9439C186.619 42.5818 184.588 44.4236 181.839 45.5308L183.333 49.2412C186.968 47.777 189.726 45.2742 191.541 41.7941C193.334 38.3583 194.162 34.0649 194.162 29.032H190.162ZM180.586 47.386V47.652H184.586V47.386H180.586ZM182.011 49.5677C185.016 50.4691 187.024 52.2458 188.198 54.9628L191.87 53.3752C190.207 49.5308 187.249 46.9629 183.161 45.7363L182.011 49.5677ZM188.217 55.004C189.558 57.9221 190.295 61.9905 190.295 67.336H194.295C194.295 61.6868 193.525 56.9773 191.852 53.334L188.217 55.004ZM190.295 67.336V83.695H194.295V67.336H190.295ZM190.295 83.695C190.295 86.3904 190.385 88.6397 190.572 90.4214L194.55 90.0026C194.383 88.415 194.295 86.3196 194.295 83.695H190.295ZM190.573 90.4329C190.775 92.2501 191.278 94.0449 192.064 95.8123L195.719 94.1877C195.086 92.7631 194.702 91.3659 194.549 89.9911L190.573 90.4329ZM193.891 93H178.995V97H193.891V93ZM180.881 94.3344C180.387 92.9332 180.07 91.6499 179.914 90.4797L175.949 91.0083C176.147 92.4981 176.54 94.0521 177.109 95.6656L180.881 94.3344ZM179.914 90.4797C179.756 89.2977 179.665 87.027 179.665 83.562H175.665C175.665 87.013 175.752 89.5303 175.949 91.0083L179.914 90.4797ZM179.665 83.562V66.538H175.665V83.562H179.665ZM179.665 66.538C179.665 62.1897 178.967 58.5946 177.067 56.3387L174.007 58.9153C174.945 60.0287 175.665 62.3743 175.665 66.538H179.665ZM177.107 56.3877C175.223 54.0016 172.118 53.1 168.488 53.1V57.1C171.597 57.1 173.191 57.883 173.967 58.8663L177.107 56.3877ZM168.488 53.1H163.434V57.1H168.488V53.1ZM161.434 55.1V95H165.434V55.1H161.434ZM163.434 93H148.804V97H163.434V93ZM150.804 95V1.89999H146.804V95H150.804ZM168.754 43.8C171.999 43.8 174.797 42.9615 176.728 40.9097L173.815 38.1683C172.908 39.1312 171.362 39.8 168.754 39.8V43.8ZM176.685 40.9532C178.751 38.8873 179.532 35.7019 179.532 31.958H175.532C175.532 35.3074 174.806 37.176 173.857 38.1248L176.685 40.9532ZM179.532 31.958V24.776H175.532V31.958H179.532ZM179.532 24.776C179.532 21.2479 178.899 18.2353 177.214 16.1896L174.126 18.7324C174.924 19.7014 175.532 21.5654 175.532 24.776H179.532ZM177.259 16.2461C175.604 14.0816 173.041 13.2 170.084 13.2V17.2C172.27 17.2 173.431 17.8257 174.081 18.6759L177.259 16.2461ZM170.084 13.2H163.434V17.2H170.084V13.2ZM161.434 15.2V41.8H165.434V15.2H161.434ZM163.434 43.8H168.754V39.8H163.434V43.8ZM222.396 1.89999V-0.100006H220.396V1.89999H222.396ZM262.296 1.89999H264.296V-0.100006H262.296V1.89999ZM262.296 15.2V17.2H264.296V15.2H262.296ZM237.026 15.2V13.2H235.026V15.2H237.026ZM237.026 39.805H235.026V41.805H237.026V39.805ZM257.109 39.805H259.109V37.805H257.109V39.805ZM257.109 53.105V55.105H259.109V53.105H257.109ZM237.026 53.105V51.105H235.026V53.105H237.026ZM237.026 81.7H235.026V83.7H237.026V81.7ZM262.296 81.7H264.296V79.7H262.296V81.7ZM262.296 95V97H264.296V95H262.296ZM222.396 95H220.396V97H222.396V95ZM222.396 3.89999H262.296V-0.100006H222.396V3.89999ZM260.296 1.89999V15.2H264.296V1.89999H260.296ZM262.296 13.2H237.026V17.2H262.296V13.2ZM235.026 15.2V39.805H239.026V15.2H235.026ZM237.026 41.805H257.109V37.805H237.026V41.805ZM255.109 39.805V53.105H259.109V39.805H255.109ZM257.109 51.105H237.026V55.105H257.109V51.105ZM235.026 53.105V81.7H239.026V53.105H235.026ZM237.026 83.7H262.296V79.7H237.026V83.7ZM260.296 81.7V95H264.296V81.7H260.296ZM262.296 93H222.396V97H262.296V93ZM224.396 95V1.89999H220.396V95H224.396ZM290.662 1.89999V-0.100006H288.662V1.89999H290.662ZM311.543 1.89999L313.524 1.62324L313.283 -0.100006H311.543V1.89999ZM320.853 68.533L318.872 68.8098L319.113 70.533H320.853V68.533ZM321.119 68.533V70.533H322.859L323.1 68.8098L321.119 68.533ZM330.429 1.89999V-0.100006H328.689L328.448 1.62324L330.429 1.89999ZM351.31 1.89999H353.31V-0.100006H351.31V1.89999ZM351.31 95V97H353.31V95H351.31ZM337.478 95H335.478V97H337.478V95ZM337.478 24.51H339.478V22.51H337.478V24.51ZM337.212 24.51V22.51H335.491L335.235 24.2115L337.212 24.51ZM326.572 95V97H328.293L328.55 95.2985L326.572 95ZM314.336 95L312.359 95.2985L312.615 97H314.336V95ZM303.696 24.51L305.674 24.2115L305.417 22.51H303.696V24.51ZM303.43 24.51V22.51H301.43V24.51H303.43ZM303.43 95V97H305.43V95H303.43ZM290.662 95H288.662V97H290.662V95ZM290.662 3.89999H311.543V-0.100006H290.662V3.89999ZM309.562 2.17675L318.872 68.8098L322.834 68.2562L313.524 1.62324L309.562 2.17675ZM320.853 70.533H321.119V66.533H320.853V70.533ZM323.1 68.8098L332.41 2.17675L328.448 1.62324L319.138 68.2562L323.1 68.8098ZM330.429 3.89999H351.31V-0.100006H330.429V3.89999ZM349.31 1.89999V95H353.31V1.89999H349.31ZM351.31 93H337.478V97H351.31V93ZM339.478 95V24.51H335.478V95H339.478ZM337.478 22.51H337.212V26.51H337.478V22.51ZM335.235 24.2115L324.595 94.7015L328.55 95.2985L339.19 24.8085L335.235 24.2115ZM326.572 93H314.336V97H326.572V93ZM316.314 94.7015L305.674 24.2115L301.719 24.8085L312.359 95.2985L316.314 94.7015ZM303.696 22.51H303.43V26.51H303.696V22.51ZM301.43 24.51V95H305.43V24.51H301.43ZM303.43 93H290.662V97H303.43V93ZM292.662 95V1.89999H288.662V95H292.662ZM423.428 1.89999V-0.100006H421.428V1.89999H423.428ZM438.058 1.89999H440.058V-0.100006H438.058V1.89999ZM438.058 95V97H440.058V95H438.058ZM423.428 95H421.428V97H423.428V95ZM423.428 3.89999H438.058V-0.100006H423.428V3.89999ZM436.058 1.89999V95H440.058V1.89999H436.058ZM438.058 93H423.428V97H438.058V93ZM425.428 95V1.89999H421.428V95H425.428ZM468.965 1.89999V-0.100006H466.965V1.89999H468.965ZM506.87 7.752L505.407 9.11545V9.11545L506.87 7.752ZM506.87 51.243L505.407 49.8795V49.8795L506.87 51.243ZM483.595 57.095V55.095H481.595V57.095H483.595ZM483.595 95V97H485.595V95H483.595ZM468.965 95H466.965V97H468.965V95ZM495.831 41.8L494.369 40.4354L494.344 40.4623L494.32 40.4901L495.831 41.8ZM495.831 17.195L494.32 18.5049L494.344 18.5327L494.369 18.5596L495.831 17.195ZM483.595 15.2V13.2H481.595V15.2H483.595ZM483.595 43.795H481.595V45.795H483.595V43.795ZM468.965 3.89999H490.511V-0.100006H468.965V3.89999ZM490.511 3.89999C497.436 3.89999 502.272 5.75121 505.407 9.11545L508.334 6.38855C504.198 1.95011 498.128 -0.100006 490.511 -0.100006V3.89999ZM505.407 9.11545C508.577 12.5176 510.323 17.6691 510.323 24.909H514.323C514.323 17.0756 512.434 10.7891 508.334 6.38855L505.407 9.11545ZM510.323 24.909V34.086H514.323V24.909H510.323ZM510.323 34.086C510.323 41.3259 508.577 46.4774 505.407 49.8795L508.334 52.6064C512.434 48.2059 514.323 41.9194 514.323 34.086H510.323ZM505.407 49.8795C502.272 53.2438 497.436 55.095 490.511 55.095V59.095C498.128 59.095 504.198 57.0449 508.334 52.6064L505.407 49.8795ZM490.511 55.095H483.595V59.095H490.511V55.095ZM481.595 57.095V95H485.595V57.095H481.595ZM483.595 93H468.965V97H483.595V93ZM470.965 95V1.89999H466.965V95H470.965ZM490.511 45.795C493.266 45.795 495.687 45.0205 497.343 43.1099L494.32 40.4901C493.67 41.2395 492.545 41.795 490.511 41.795V45.795ZM497.293 43.1646C499.062 41.2701 499.693 38.3659 499.693 35.017H495.693C495.693 38.0521 495.084 39.6699 494.369 40.4354L497.293 43.1646ZM499.693 35.017V23.978H495.693V35.017H499.693ZM499.693 23.978C499.693 20.6291 499.062 17.7249 497.293 15.8304L494.369 18.5596C495.084 19.3251 495.693 20.9429 495.693 23.978H499.693ZM497.343 15.8851C495.687 13.9745 493.266 13.2 490.511 13.2V17.2C492.545 17.2 493.67 17.7555 494.32 18.5049L497.343 15.8851ZM490.511 13.2H483.595V17.2H490.511V13.2ZM481.595 15.2V43.795H485.595V15.2H481.595ZM483.595 45.795H490.511V41.795H483.595V45.795ZM543.665 90.345L542.172 91.6757L542.179 91.6839L542.186 91.692L543.665 90.345ZM538.212 67.602V65.602H536.212V67.602H538.212ZM552.044 67.602H554.044V65.602H552.044V67.602ZM565.211 80.902L563.711 79.5787L563.705 79.585L565.211 80.902ZM564.546 63.479L562.822 64.493L562.828 64.5044L562.835 64.5156L564.546 63.479ZM554.704 52.706L553.38 54.2057L553.391 54.2146L554.704 52.706ZM542.069 38.342L540.317 39.3072L540.321 39.3149L540.325 39.3225L542.069 38.342ZM544.064 6.688L545.526 8.05263L545.533 8.04462L545.54 8.03653L544.064 6.688ZM576.117 6.688L574.607 8.00035L574.622 8.01784L574.638 8.03498L576.117 6.688ZM581.57 27.835V29.835H583.57V27.835H581.57ZM567.738 27.835H565.738V29.835H567.738V27.835ZM565.876 16.131L564.332 17.4024L564.351 17.4255L564.37 17.448L565.876 16.131ZM555.768 32.224L554.057 33.2606L554.068 33.2793L554.08 33.2977L555.768 32.224ZM565.743 42.864L564.43 44.3726L564.43 44.3732L565.743 42.864ZM578.378 57.361L576.611 58.2984L578.378 57.361ZM576.117 90.212L574.655 88.8462L574.647 88.8548L574.64 88.8635L576.117 90.212ZM559.758 94.33C553.041 94.33 548.29 92.4518 545.143 88.998L542.186 91.692C546.31 96.2182 552.288 98.33 559.758 98.33V94.33ZM545.158 89.0143C541.955 85.4208 540.212 80.1547 540.212 72.922H536.212C536.212 80.7626 538.104 87.1118 542.172 91.6757L545.158 89.0143ZM540.212 72.922V67.602H536.212V72.922H540.212ZM538.212 69.602H552.044V65.602H538.212V69.602ZM550.044 67.602V73.986H554.044V67.602H550.044ZM550.044 73.986C550.044 77.2314 550.716 80.0379 552.406 82.0538C554.152 84.1373 556.688 85.03 559.625 85.03V81.03C557.508 81.03 556.252 80.4154 555.471 79.4842C554.634 78.4854 554.044 76.77 554.044 73.986H550.044ZM559.625 85.03C562.49 85.03 564.983 84.1989 566.716 82.219L563.705 79.585C562.955 80.4424 561.724 81.03 559.625 81.03V85.03ZM566.71 82.2252C568.513 80.1824 569.206 77.1993 569.206 73.72H565.206C565.206 76.802 564.568 78.607 563.711 79.5788L566.71 82.2252ZM569.206 73.72C569.206 69.5055 568.244 65.7229 566.256 62.4424L562.835 64.5156C564.394 67.0871 565.206 70.1318 565.206 73.72H569.206ZM566.269 62.465C564.331 59.1706 560.857 55.4107 556.017 51.1974L553.391 54.2146C558.126 58.3359 561.213 61.7581 562.822 64.493L566.269 62.465ZM556.027 51.2063C550.071 45.9516 546.048 41.3366 543.812 37.3615L540.325 39.3225C542.877 43.8594 547.277 48.8204 553.38 54.2057L556.027 51.2063ZM543.82 37.3768C541.604 33.354 540.478 28.8144 540.478 23.712H536.478C536.478 29.4269 537.745 34.6407 540.317 39.3072L543.82 37.3768ZM540.478 23.712C540.478 16.6795 542.253 11.559 545.526 8.05263L542.601 5.32336C538.426 9.79696 536.478 16.0258 536.478 23.712H540.478ZM545.54 8.03653C548.785 4.48354 553.589 2.57 560.29 2.57V-1.43C552.804 -1.43 546.791 0.735123 542.587 5.33946L545.54 8.03653ZM560.29 2.57C566.898 2.57 571.546 4.47981 574.607 8.00035L577.626 5.37564C573.594 0.738842 567.69 -1.43 560.29 -1.43V2.57ZM574.638 8.03498C577.825 11.5327 579.57 16.7418 579.57 23.978H583.57C583.57 16.1409 581.679 9.82328 577.595 5.34101L574.638 8.03498ZM579.57 23.978V27.835H583.57V23.978H579.57ZM581.57 25.835H567.738V29.835H581.57V25.835ZM569.738 27.835V23.047H565.738V27.835H569.738ZM569.738 23.047C569.738 19.68 569.098 16.7771 567.381 14.814L564.37 17.448C565.135 18.3222 565.738 20.03 565.738 23.047H569.738ZM567.419 14.8596C565.713 12.7875 563.266 11.87 560.423 11.87V15.87C562.367 15.87 563.555 16.4598 564.332 17.4024L567.419 14.8596ZM560.423 11.87C557.56 11.87 555.088 12.7608 553.39 14.8288C551.755 16.8212 551.108 19.5878 551.108 22.781H555.108C555.108 20.0336 555.679 18.3446 556.482 17.3667C557.223 16.4644 558.408 15.87 560.423 15.87V11.87ZM551.108 22.781C551.108 26.5217 552.097 30.0271 554.057 33.2606L557.478 31.1874C555.891 28.5689 555.108 25.7789 555.108 22.781H551.108ZM554.08 33.2977C556.098 36.4683 559.595 40.1652 564.43 44.3726L567.056 41.3554C562.314 37.2281 559.161 33.8317 557.455 31.1502L554.08 33.2977ZM564.43 44.3732C570.467 49.6228 574.471 54.2661 576.611 58.2984L580.144 56.4236C577.673 51.7665 573.254 46.7452 567.055 41.3548L564.43 44.3732ZM576.611 58.2984C578.736 62.3043 579.836 67.069 579.836 72.656H583.836C583.836 66.539 582.629 61.107 580.144 56.4236L576.611 58.2984ZM579.836 72.656C579.836 79.9623 578.012 85.2557 574.655 88.8462L577.578 91.5778C581.847 87.011 583.836 80.6004 583.836 72.656H579.836ZM574.64 88.8635C571.4 92.4114 566.556 94.33 559.758 94.33V98.33C567.323 98.33 573.385 96.1699 577.594 91.5605L574.64 88.8635ZM615.228 90.345L613.751 91.6935L613.758 91.7016L613.766 91.7096L615.228 90.345ZM609.642 1.89999V-0.100006H607.642V1.89999H609.642ZM624.272 1.89999H626.272V-0.100006H624.272V1.89999ZM626.134 80.902L624.629 82.219L624.651 82.2448L624.675 82.2699L626.134 80.902ZM637.173 80.902L635.714 79.5341L635.69 79.5592L635.668 79.585L637.173 80.902ZM639.168 1.89999V-0.100006H637.168V1.89999H639.168ZM653.266 1.89999H655.266V-0.100006H653.266V1.89999ZM647.68 90.345L649.142 91.7096L649.149 91.7016L649.157 91.6935L647.68 90.345ZM631.454 94.33C624.74 94.33 619.931 92.4528 616.69 88.9804L613.766 91.7096C617.973 96.2173 623.981 98.33 631.454 98.33V94.33ZM616.705 88.9965C613.424 85.4027 611.642 80.1435 611.642 72.922H607.642C607.642 80.7738 609.584 87.13 613.751 91.6935L616.705 88.9965ZM611.642 72.922V1.89999H607.642V72.922H611.642ZM609.642 3.89999H624.272V-0.100006H609.642V3.89999ZM622.272 1.89999V73.986H626.272V1.89999H622.272ZM622.272 73.986C622.272 77.353 622.911 80.2559 624.629 82.219L627.639 79.585C626.874 78.7108 626.272 77.003 626.272 73.986H622.272ZM624.675 82.2699C626.467 84.182 628.91 85.03 631.72 85.03V81.03C629.742 81.03 628.46 80.4594 627.593 79.5341L624.675 82.2699ZM631.72 85.03C634.523 85.03 636.959 84.1834 638.678 82.219L635.668 79.585C634.904 80.4579 633.704 81.03 631.72 81.03V85.03ZM638.632 82.2699C640.474 80.3048 641.168 77.3788 641.168 73.986H637.168C637.168 76.9772 636.531 78.6619 635.714 79.5341L638.632 82.2699ZM641.168 73.986V1.89999H637.168V73.986H641.168ZM639.168 3.89999H653.266V-0.100006H639.168V3.89999ZM651.266 1.89999V72.922H655.266V1.89999H651.266ZM651.266 72.922C651.266 80.1435 649.484 85.4027 646.203 88.9965L649.157 91.6935C653.324 87.13 655.266 80.7738 655.266 72.922H651.266ZM646.218 88.9804C642.977 92.4528 638.168 94.33 631.454 94.33V98.33C638.927 98.33 644.935 96.2173 649.142 91.7096L646.218 88.9804ZM683.636 1.89999V-0.100006H681.636V1.89999H683.636ZM704.517 1.89999L706.497 1.62324L706.257 -0.100006H704.517V1.89999ZM713.827 68.533L711.846 68.8098L712.087 70.533H713.827V68.533ZM714.093 68.533V70.533H715.833L716.073 68.8098L714.093 68.533ZM723.403 1.89999V-0.100006H721.663L721.422 1.62324L723.403 1.89999ZM744.284 1.89999H746.284V-0.100006H744.284V1.89999ZM744.284 95V97H746.284V95H744.284ZM730.452 95H728.452V97H730.452V95ZM730.452 24.51H732.452V22.51H730.452V24.51ZM730.186 24.51V22.51H728.465L728.208 24.2115L730.186 24.51ZM719.546 95V97H721.266L721.523 95.2985L719.546 95ZM707.31 95L705.332 95.2985L705.589 97H707.31V95ZM696.67 24.51L698.647 24.2115L698.39 22.51H696.67V24.51ZM696.404 24.51V22.51H694.404V24.51H696.404ZM696.404 95V97H698.404V95H696.404ZM683.636 95H681.636V97H683.636V95ZM683.636 3.89999H704.517V-0.100006H683.636V3.89999ZM702.536 2.17675L711.846 68.8098L715.807 68.2562L706.497 1.62324L702.536 2.17675ZM713.827 70.533H714.093V66.533H713.827V70.533ZM716.073 68.8098L725.383 2.17675L721.422 1.62324L712.112 68.2562L716.073 68.8098ZM723.403 3.89999H744.284V-0.100006H723.403V3.89999ZM742.284 1.89999V95H746.284V1.89999H742.284ZM744.284 93H730.452V97H744.284V93ZM732.452 95V24.51H728.452V95H732.452ZM730.452 22.51H730.186V26.51H730.452V22.51ZM728.208 24.2115L717.568 94.7015L721.523 95.2985L732.163 24.8085L728.208 24.2115ZM719.546 93H707.31V97H719.546V93ZM709.287 94.7015L698.647 24.2115L694.692 24.8085L705.332 95.2985L709.287 94.7015ZM696.67 22.51H696.404V26.51H696.67V22.51ZM694.404 24.51V95H698.404V24.51H694.404ZM696.404 93H683.636V97H696.404V93ZM685.636 95V1.89999H681.636V95H685.636Z" fill="black"/>
<path d="M5.453 6.14243H20.083V85.9424H44.156V99.2424H5.453V6.14243ZM91.7492 100.572C84.5672 100.572 79.0699 98.5331 75.2572 94.4544C71.4445 90.3758 69.5382 84.6124 69.5382 77.1644V28.2204C69.5382 20.7724 71.4445 15.0091 75.2572 10.9304C79.0699 6.85176 84.5672 4.81243 91.7492 4.81243C98.9312 4.81243 104.429 6.85176 108.241 10.9304C112.054 15.0091 113.96 20.7724 113.96 28.2204V77.1644C113.96 84.6124 112.054 90.3758 108.241 94.4544C104.429 98.5331 98.9312 100.572 91.7492 100.572ZM91.7492 87.2724C96.8032 87.2724 99.3302 84.2134 99.3302 78.0954V27.2894C99.3302 21.1714 96.8032 18.1124 91.7492 18.1124C86.6952 18.1124 84.1682 21.1714 84.1682 27.2894V78.0954C84.1682 84.2134 86.6952 87.2724 91.7492 87.2724ZM143.804 6.14243H165.483C173.02 6.14243 178.517 7.91576 181.975 11.4624C185.433 14.9204 187.162 20.2848 187.162 27.5554V33.2744C187.162 42.9391 183.97 49.0571 177.586 51.6284V51.8944C181.133 52.9584 183.616 55.1308 185.034 58.4114C186.542 61.6921 187.295 66.0811 187.295 71.5784V87.9374C187.295 90.5974 187.384 92.7698 187.561 94.4544C187.739 96.0504 188.182 97.6464 188.891 99.2424H173.995C173.463 97.7351 173.109 96.3164 172.931 94.9864C172.754 93.6564 172.665 91.2624 172.665 87.8044V70.7804C172.665 66.5244 171.956 63.5541 170.537 61.8694C169.207 60.1848 166.858 59.3424 163.488 59.3424H158.434V99.2424H143.804V6.14243ZM163.754 46.0424C166.68 46.0424 168.853 45.2888 170.271 43.7814C171.778 42.2741 172.532 39.7471 172.532 36.2004V29.0184C172.532 25.6491 171.911 23.2108 170.67 21.7034C169.518 20.1961 167.655 19.4424 165.084 19.4424H158.434V46.0424H163.754ZM217.396 6.14243H257.296V19.4424H232.026V44.0474H252.109V57.3474H232.026V85.9424H257.296V99.2424H217.396V6.14243ZM285.662 6.14243H306.543L315.853 72.7754H316.119L325.429 6.14243H346.31V99.2424H332.478V28.7524H332.212L321.572 99.2424H309.336L298.696 28.7524H298.43V99.2424H285.662V6.14243ZM418.428 6.14243H433.058V99.2424H418.428V6.14243ZM463.965 6.14243H485.511C492.782 6.14243 498.235 8.09309 501.87 11.9944C505.506 15.8958 507.323 21.6148 507.323 29.1514V38.3284C507.323 45.8651 505.506 51.5841 501.87 55.4854C498.235 59.3868 492.782 61.3374 485.511 61.3374H478.595V99.2424H463.965V6.14243ZM485.511 48.0374C487.905 48.0374 489.679 47.3724 490.831 46.0424C492.073 44.7124 492.693 42.4514 492.693 39.2594V28.2204C492.693 25.0284 492.073 22.7674 490.831 21.4374C489.679 20.1074 487.905 19.4424 485.511 19.4424H478.595V48.0374H485.511ZM554.758 100.572C547.664 100.572 542.3 98.5774 538.665 94.5874C535.029 90.5088 533.212 84.7011 533.212 77.1644V71.8444H547.044V78.2284C547.044 84.2578 549.571 87.2724 554.625 87.2724C557.107 87.2724 558.969 86.5631 560.211 85.1444C561.541 83.6371 562.206 81.2431 562.206 77.9624C562.206 74.0611 561.319 70.6474 559.546 67.7214C557.772 64.7068 554.492 61.1158 549.704 56.9484C543.674 51.6284 539.463 46.8404 537.069 42.5844C534.675 38.2398 533.478 33.3631 533.478 27.9544C533.478 20.5951 535.34 14.9204 539.064 10.9304C542.788 6.85176 548.196 4.81243 555.29 4.81243C562.294 4.81243 567.57 6.85176 571.117 10.9304C574.752 14.9204 576.57 20.6838 576.57 28.2204V32.0774H562.738V27.2894C562.738 24.0974 562.117 21.7921 560.876 20.3734C559.634 18.8661 557.817 18.1124 555.423 18.1124C550.546 18.1124 548.108 21.0828 548.108 27.0234C548.108 30.3928 548.994 33.5404 550.768 36.4664C552.63 39.3924 555.955 42.9391 560.743 47.1064C566.861 52.4264 571.072 57.2588 573.378 61.6034C575.683 65.9481 576.836 71.0464 576.836 76.8984C576.836 84.5238 574.929 90.3758 571.117 94.4544C567.393 98.5331 561.94 100.572 554.758 100.572ZM626.454 100.572C619.361 100.572 613.952 98.5774 610.228 94.5874C606.504 90.5088 604.642 84.7011 604.642 77.1644V6.14243H619.272V78.2284C619.272 81.4204 619.893 83.7258 621.134 85.1444C622.464 86.5631 624.326 87.2724 626.72 87.2724C629.114 87.2724 630.932 86.5631 632.173 85.1444C633.503 83.7258 634.168 81.4204 634.168 78.2284V6.14243H648.266V77.1644C648.266 84.7011 646.404 90.5088 642.68 94.5874C638.956 98.5774 633.547 100.572 626.454 100.572ZM678.636 6.14243H699.517L708.827 72.7754H709.093L718.403 6.14243H739.284V99.2424H725.452V28.7524H725.186L714.546 99.2424H702.31L691.67 28.7524H691.404V99.2424H678.636V6.14243Z" fill="#4C9BC8"/>
<path d="M5.453 6.14243V4.14243H3.453V6.14243H5.453ZM20.083 6.14243H22.083V4.14243H20.083V6.14243ZM20.083 85.9424H18.083V87.9424H20.083V85.9424ZM44.156 85.9424H46.156V83.9424H44.156V85.9424ZM44.156 99.2424V101.242H46.156V99.2424H44.156ZM5.453 99.2424H3.453V101.242H5.453V99.2424ZM5.453 8.14243H20.083V4.14243H5.453V8.14243ZM18.083 6.14243V85.9424H22.083V6.14243H18.083ZM20.083 87.9424H44.156V83.9424H20.083V87.9424ZM42.156 85.9424V99.2424H46.156V85.9424H42.156ZM44.156 97.2424H5.453V101.242H44.156V97.2424ZM7.453 99.2424V6.14243H3.453V99.2424H7.453ZM75.2572 94.4544L76.7183 93.0887L76.7183 93.0887L75.2572 94.4544ZM75.2572 10.9304L76.7183 12.2962L76.7183 12.2962L75.2572 10.9304ZM108.241 10.9304L106.78 12.2962L106.78 12.2962L108.241 10.9304ZM108.241 94.4544L106.78 93.0887L106.78 93.0887L108.241 94.4544ZM91.7492 98.5724C84.9533 98.5724 80.0517 96.6547 76.7183 93.0887L73.7962 95.8202C78.0881 100.412 84.1811 102.572 91.7492 102.572V98.5724ZM76.7183 93.0887C73.3544 89.4901 71.5382 84.2785 71.5382 77.1644H67.5382C67.5382 84.9464 69.5347 91.2614 73.7962 95.8202L76.7183 93.0887ZM71.5382 77.1644V28.2204H67.5382V77.1644H71.5382ZM71.5382 28.2204C71.5382 21.1064 73.3544 15.8948 76.7183 12.2962L73.7962 9.56466C69.5347 14.1234 67.5382 20.4385 67.5382 28.2204H71.5382ZM76.7183 12.2962C80.0517 8.73019 84.9533 6.81243 91.7492 6.81243V2.81243C84.1811 2.81243 78.0881 4.97333 73.7962 9.56466L76.7183 12.2962ZM91.7492 6.81243C98.5451 6.81243 103.447 8.73019 106.78 12.2962L109.702 9.56466C105.41 4.97333 99.3173 2.81243 91.7492 2.81243V6.81243ZM106.78 12.2962C110.144 15.8948 111.96 21.1064 111.96 28.2204H115.96C115.96 20.4385 113.964 14.1234 109.702 9.56466L106.78 12.2962ZM111.96 28.2204V77.1644H115.96V28.2204H111.96ZM111.96 77.1644C111.96 84.2785 110.144 89.4901 106.78 93.0887L109.702 95.8202C113.964 91.2614 115.96 84.9464 115.96 77.1644H111.96ZM106.78 93.0887C103.447 96.6547 98.5451 98.5724 91.7492 98.5724V102.572C99.3173 102.572 105.41 100.412 109.702 95.8202L106.78 93.0887ZM91.7492 89.2724C94.6959 89.2724 97.2336 88.3623 98.9769 86.2519C100.66 84.2148 101.33 81.3797 101.33 78.0954H97.3302C97.3302 80.9292 96.7372 82.6826 95.893 83.7044C95.1094 84.6531 93.8566 85.2724 91.7492 85.2724V89.2724ZM101.33 78.0954V27.2894H97.3302V78.0954H101.33ZM101.33 27.2894C101.33 24.0052 100.66 21.1701 98.9769 19.1329C97.2336 17.0226 94.6959 16.1124 91.7492 16.1124V20.1124C93.8566 20.1124 95.1094 20.7318 95.893 21.6804C96.7372 22.7023 97.3302 24.4557 97.3302 27.2894H101.33ZM91.7492 16.1124C88.8026 16.1124 86.2649 17.0226 84.5215 19.1329C82.8387 21.1701 82.1682 24.0052 82.1682 27.2894H86.1682C86.1682 24.4557 86.7613 22.7023 87.6054 21.6804C88.3891 20.7318 89.6419 20.1124 91.7492 20.1124V16.1124ZM82.1682 27.2894V78.0954H86.1682V27.2894H82.1682ZM82.1682 78.0954C82.1682 81.3797 82.8387 84.2148 84.5215 86.2519C86.2649 88.3623 88.8026 89.2724 91.7492 89.2724V85.2724C89.6419 85.2724 88.3891 84.6531 87.6054 83.7044C86.7613 82.6826 86.1682 80.9292 86.1682 78.0954H82.1682ZM143.804 6.14243V4.14243H141.804V6.14243H143.804ZM181.975 11.4624L180.543 12.8586L180.552 12.8677L180.561 12.8766L181.975 11.4624ZM177.586 51.6284L176.839 49.7733L175.586 50.2779V51.6284H177.586ZM177.586 51.8944H175.586V53.3825L177.011 53.8101L177.586 51.8944ZM185.034 58.4114L183.198 59.2053L183.207 59.2259L183.217 59.2464L185.034 58.4114ZM187.561 94.4544L185.572 94.6638L185.573 94.6753L187.561 94.4544ZM188.891 99.2424V101.242H191.969L190.719 98.4302L188.891 99.2424ZM173.995 99.2424L172.109 99.9081L172.58 101.242H173.995V99.2424ZM170.537 61.8694L168.967 63.1087L168.987 63.1335L169.007 63.1577L170.537 61.8694ZM158.434 59.3424V57.3424H156.434V59.3424H158.434ZM158.434 99.2424V101.242H160.434V99.2424H158.434ZM143.804 99.2424H141.804V101.242H143.804V99.2424ZM170.271 43.7814L168.857 42.3672L168.836 42.3886L168.815 42.4107L170.271 43.7814ZM170.67 21.7034L169.081 22.9183L169.103 22.947L169.126 22.9748L170.67 21.7034ZM158.434 19.4424V17.4424H156.434V19.4424H158.434ZM158.434 46.0424H156.434V48.0424H158.434V46.0424ZM143.804 8.14243H165.483V4.14243H143.804V8.14243ZM165.483 8.14243C172.758 8.14243 177.619 9.85947 180.543 12.8586L183.407 10.0662C179.415 5.97205 173.282 4.14243 165.483 4.14243V8.14243ZM180.561 12.8766C183.495 15.8107 185.162 20.5592 185.162 27.5554H189.162C189.162 20.0104 187.371 14.0301 183.389 10.0482L180.561 12.8766ZM185.162 27.5554V33.2744H189.162V27.5554H185.162ZM185.162 33.2744C185.162 37.9062 184.394 41.5041 182.995 44.1863C181.619 46.8242 179.588 48.6661 176.839 49.7733L178.333 53.4836C181.968 52.0195 184.726 49.5166 186.541 46.0366C188.334 42.6007 189.162 38.3073 189.162 33.2744H185.162ZM175.586 51.6284V51.8944H179.586V51.6284H175.586ZM177.011 53.8101C180.016 54.7115 182.024 56.4883 183.198 59.2053L186.87 57.6176C185.207 53.7733 182.249 51.2053 178.161 49.9788L177.011 53.8101ZM183.217 59.2464C184.558 62.1645 185.295 66.233 185.295 71.5784H189.295C189.295 65.9292 188.525 61.2197 186.852 57.5764L183.217 59.2464ZM185.295 71.5784V87.9374H189.295V71.5784H185.295ZM185.295 87.9374C185.295 90.6328 185.385 92.8821 185.572 94.6638L189.55 94.2451C189.383 92.6574 189.295 90.562 189.295 87.9374H185.295ZM185.573 94.6753C185.775 96.4926 186.278 98.2873 187.064 100.055L190.719 98.4302C190.086 97.0055 189.702 95.6083 189.549 94.2336L185.573 94.6753ZM188.891 97.2424H173.995V101.242H188.891V97.2424ZM175.881 98.5768C175.387 97.1756 175.07 95.8923 174.914 94.7221L170.949 95.2508C171.147 96.7405 171.54 98.2945 172.109 99.9081L175.881 98.5768ZM174.914 94.7221C174.756 93.5401 174.665 91.2694 174.665 87.8044H170.665C170.665 91.2554 170.752 93.7727 170.949 95.2508L174.914 94.7221ZM174.665 87.8044V70.7804H170.665V87.8044H174.665ZM174.665 70.7804C174.665 66.4321 173.967 62.8371 172.067 60.5812L169.007 63.1577C169.945 64.2711 170.665 66.6168 170.665 70.7804H174.665ZM172.107 60.6301C170.223 58.244 167.118 57.3424 163.488 57.3424V61.3424C166.597 61.3424 168.191 62.1255 168.967 63.1087L172.107 60.6301ZM163.488 57.3424H158.434V61.3424H163.488V57.3424ZM156.434 59.3424V99.2424H160.434V59.3424H156.434ZM158.434 97.2424H143.804V101.242H158.434V97.2424ZM145.804 99.2424V6.14243H141.804V99.2424H145.804ZM163.754 48.0424C166.999 48.0424 169.797 47.2039 171.728 45.1522L168.815 42.4107C167.908 43.3736 166.362 44.0424 163.754 44.0424V48.0424ZM171.685 45.1956C173.751 43.1297 174.532 39.9444 174.532 36.2004H170.532C170.532 39.5498 169.806 41.4185 168.857 42.3672L171.685 45.1956ZM174.532 36.2004V29.0184H170.532V36.2004H174.532ZM174.532 29.0184C174.532 25.4903 173.899 22.4777 172.214 20.432L169.126 22.9748C169.924 23.9438 170.532 25.8079 170.532 29.0184H174.532ZM172.259 20.4885C170.604 18.324 168.041 17.4424 165.084 17.4424V21.4424C167.27 21.4424 168.431 22.0682 169.081 22.9183L172.259 20.4885ZM165.084 17.4424H158.434V21.4424H165.084V17.4424ZM156.434 19.4424V46.0424H160.434V19.4424H156.434ZM158.434 48.0424H163.754V44.0424H158.434V48.0424ZM217.396 6.14243V4.14243H215.396V6.14243H217.396ZM257.296 6.14243H259.296V4.14243H257.296V6.14243ZM257.296 19.4424V21.4424H259.296V19.4424H257.296ZM232.026 19.4424V17.4424H230.026V19.4424H232.026ZM232.026 44.0474H230.026V46.0474H232.026V44.0474ZM252.109 44.0474H254.109V42.0474H252.109V44.0474ZM252.109 57.3474V59.3474H254.109V57.3474H252.109ZM232.026 57.3474V55.3474H230.026V57.3474H232.026ZM232.026 85.9424H230.026V87.9424H232.026V85.9424ZM257.296 85.9424H259.296V83.9424H257.296V85.9424ZM257.296 99.2424V101.242H259.296V99.2424H257.296ZM217.396 99.2424H215.396V101.242H217.396V99.2424ZM217.396 8.14243H257.296V4.14243H217.396V8.14243ZM255.296 6.14243V19.4424H259.296V6.14243H255.296ZM257.296 17.4424H232.026V21.4424H257.296V17.4424ZM230.026 19.4424V44.0474H234.026V19.4424H230.026ZM232.026 46.0474H252.109V42.0474H232.026V46.0474ZM250.109 44.0474V57.3474H254.109V44.0474H250.109ZM252.109 55.3474H232.026V59.3474H252.109V55.3474ZM230.026 57.3474V85.9424H234.026V57.3474H230.026ZM232.026 87.9424H257.296V83.9424H232.026V87.9424ZM255.296 85.9424V99.2424H259.296V85.9424H255.296ZM257.296 97.2424H217.396V101.242H257.296V97.2424ZM219.396 99.2424V6.14243H215.396V99.2424H219.396ZM285.662 6.14243V4.14243H283.662V6.14243H285.662ZM306.543 6.14243L308.524 5.86567L308.283 4.14243H306.543V6.14243ZM315.853 72.7754L313.872 73.0522L314.113 74.7754H315.853V72.7754ZM316.119 72.7754V74.7754H317.859L318.1 73.0522L316.119 72.7754ZM325.429 6.14243V4.14243H323.689L323.448 5.86567L325.429 6.14243ZM346.31 6.14243H348.31V4.14243H346.31V6.14243ZM346.31 99.2424V101.242H348.31V99.2424H346.31ZM332.478 99.2424H330.478V101.242H332.478V99.2424ZM332.478 28.7524H334.478V26.7524H332.478V28.7524ZM332.212 28.7524V26.7524H330.491L330.235 28.4539L332.212 28.7524ZM321.572 99.2424V101.242H323.293L323.55 99.5409L321.572 99.2424ZM309.336 99.2424L307.359 99.5409L307.615 101.242H309.336V99.2424ZM298.696 28.7524L300.674 28.4539L300.417 26.7524H298.696V28.7524ZM298.43 28.7524V26.7524H296.43V28.7524H298.43ZM298.43 99.2424V101.242H300.43V99.2424H298.43ZM285.662 99.2424H283.662V101.242H285.662V99.2424ZM285.662 8.14243H306.543V4.14243H285.662V8.14243ZM304.562 6.41918L313.872 73.0522L317.834 72.4987L308.524 5.86567L304.562 6.41918ZM315.853 74.7754H316.119V70.7754H315.853V74.7754ZM318.1 73.0522L327.41 6.41918L323.448 5.86567L314.138 72.4987L318.1 73.0522ZM325.429 8.14243H346.31V4.14243H325.429V8.14243ZM344.31 6.14243V99.2424H348.31V6.14243H344.31ZM346.31 97.2424H332.478V101.242H346.31V97.2424ZM334.478 99.2424V28.7524H330.478V99.2424H334.478ZM332.478 26.7524H332.212V30.7524H332.478V26.7524ZM330.235 28.4539L319.595 98.9439L323.55 99.5409L334.19 29.0509L330.235 28.4539ZM321.572 97.2424H309.336V101.242H321.572V97.2424ZM311.314 98.9439L300.674 28.4539L296.719 29.0509L307.359 99.5409L311.314 98.9439ZM298.696 26.7524H298.43V30.7524H298.696V26.7524ZM296.43 28.7524V99.2424H300.43V28.7524H296.43ZM298.43 97.2424H285.662V101.242H298.43V97.2424ZM287.662 99.2424V6.14243H283.662V99.2424H287.662ZM418.428 6.14243V4.14243H416.428V6.14243H418.428ZM433.058 6.14243H435.058V4.14243H433.058V6.14243ZM433.058 99.2424V101.242H435.058V99.2424H433.058ZM418.428 99.2424H416.428V101.242H418.428V99.2424ZM418.428 8.14243H433.058V4.14243H418.428V8.14243ZM431.058 6.14243V99.2424H435.058V6.14243H431.058ZM433.058 97.2424H418.428V101.242H433.058V97.2424ZM420.428 99.2424V6.14243H416.428V99.2424H420.428ZM463.965 6.14243V4.14243H461.965V6.14243H463.965ZM501.87 11.9944L500.407 13.3579L500.407 13.3579L501.87 11.9944ZM501.87 55.4854L500.407 54.122L500.407 54.122L501.87 55.4854ZM478.595 61.3374V59.3374H476.595V61.3374H478.595ZM478.595 99.2424V101.242H480.595V99.2424H478.595ZM463.965 99.2424H461.965V101.242H463.965V99.2424ZM490.831 46.0424L489.369 44.6778L489.344 44.7047L489.32 44.7326L490.831 46.0424ZM490.831 21.4374L489.32 22.7473L489.344 22.7751L489.369 22.8021L490.831 21.4374ZM478.595 19.4424V17.4424H476.595V19.4424H478.595ZM478.595 48.0374H476.595V50.0374H478.595V48.0374ZM463.965 8.14243H485.511V4.14243H463.965V8.14243ZM485.511 8.14243C492.436 8.14243 497.272 9.99364 500.407 13.3579L503.334 10.631C499.198 6.19254 493.128 4.14243 485.511 4.14243V8.14243ZM500.407 13.3579C503.577 16.76 505.323 21.9115 505.323 29.1514H509.323C509.323 21.318 507.434 15.0315 503.334 10.631L500.407 13.3579ZM505.323 29.1514V38.3284H509.323V29.1514H505.323ZM505.323 38.3284C505.323 45.5684 503.577 50.7198 500.407 54.122L503.334 56.8489C507.434 52.4483 509.323 46.1618 509.323 38.3284H505.323ZM500.407 54.122C497.272 57.4862 492.436 59.3374 485.511 59.3374V63.3374C493.128 63.3374 499.198 61.2873 503.334 56.8489L500.407 54.122ZM485.511 59.3374H478.595V63.3374H485.511V59.3374ZM476.595 61.3374V99.2424H480.595V61.3374H476.595ZM478.595 97.2424H463.965V101.242H478.595V97.2424ZM465.965 99.2424V6.14243H461.965V99.2424H465.965ZM485.511 50.0374C488.266 50.0374 490.687 49.2629 492.343 47.3523L489.32 44.7326C488.67 45.482 487.545 46.0374 485.511 46.0374V50.0374ZM492.293 47.4071C494.062 45.5125 494.693 42.6083 494.693 39.2594H490.693C490.693 42.2946 490.084 43.9124 489.369 44.6778L492.293 47.4071ZM494.693 39.2594V28.2204H490.693V39.2594H494.693ZM494.693 28.2204C494.693 24.8716 494.062 21.9674 492.293 20.0728L489.369 22.8021C490.084 23.5675 490.693 25.1853 490.693 28.2204H494.693ZM492.343 20.1276C490.687 18.217 488.266 17.4424 485.511 17.4424V21.4424C487.545 21.4424 488.67 21.9979 489.32 22.7473L492.343 20.1276ZM485.511 17.4424H478.595V21.4424H485.511V17.4424ZM476.595 19.4424V48.0374H480.595V19.4424H476.595ZM478.595 50.0374H485.511V46.0374H478.595V50.0374ZM538.665 94.5874L537.171 95.9182L537.179 95.9263L537.186 95.9344L538.665 94.5874ZM533.212 71.8444V69.8444H531.212V71.8444H533.212ZM547.044 71.8444H549.044V69.8444H547.044V71.8444ZM560.211 85.1444L558.711 83.8212L558.705 83.8274L560.211 85.1444ZM559.546 67.7214L557.822 68.7355L557.828 68.7468L557.835 68.758L559.546 67.7214ZM549.704 56.9484L548.38 58.4481L548.39 58.457L549.704 56.9484ZM537.069 42.5844L535.317 43.5496L535.321 43.5573L535.325 43.565L537.069 42.5844ZM539.064 10.9304L540.526 12.2951L540.533 12.2871L540.54 12.279L539.064 10.9304ZM571.117 10.9304L569.607 12.2428L569.623 12.2603L569.638 12.2774L571.117 10.9304ZM576.57 32.0774V34.0774H578.57V32.0774H576.57ZM562.738 32.0774H560.738V34.0774H562.738V32.0774ZM560.876 20.3734L559.332 21.6448L559.351 21.6679L559.37 21.6904L560.876 20.3734ZM550.768 36.4664L549.057 37.503L549.068 37.5217L549.08 37.5402L550.768 36.4664ZM560.743 47.1064L559.429 48.615L559.43 48.6156L560.743 47.1064ZM573.378 61.6034L571.611 62.5409L571.611 62.5409L573.378 61.6034ZM571.117 94.4544L569.655 93.0887L569.647 93.0972L569.64 93.1059L571.117 94.4544ZM554.758 98.5724C548.041 98.5724 543.29 96.6943 540.143 93.2405L537.186 95.9344C541.31 100.461 547.288 102.572 554.758 102.572V98.5724ZM540.158 93.2567C536.955 89.6633 535.212 84.3972 535.212 77.1644H531.212C531.212 85.005 533.104 91.3543 537.171 95.9182L540.158 93.2567ZM535.212 77.1644V71.8444H531.212V77.1644H535.212ZM533.212 73.8444H547.044V69.8444H533.212V73.8444ZM545.044 71.8444V78.2284H549.044V71.8444H545.044ZM545.044 78.2284C545.044 81.4738 545.716 84.2804 547.406 86.2962C549.152 88.3797 551.687 89.2724 554.625 89.2724V85.2724C552.508 85.2724 551.252 84.6578 550.472 83.7266C549.634 82.7278 549.044 81.0124 549.044 78.2284H545.044ZM554.625 89.2724C557.49 89.2724 559.983 88.4414 561.716 86.4614L558.705 83.8274C557.955 84.6848 556.724 85.2724 554.625 85.2724V89.2724ZM561.71 86.4677C563.513 84.4248 564.206 81.4417 564.206 77.9624H560.206C560.206 81.0445 559.568 82.8494 558.711 83.8212L561.71 86.4677ZM564.206 77.9624C564.206 73.7479 563.244 69.9653 561.256 66.6848L557.835 68.758C559.394 71.3295 560.206 74.3743 560.206 77.9624H564.206ZM561.269 66.7074C559.332 63.413 555.857 59.6532 551.017 55.4398L548.39 58.457C553.126 62.5784 556.213 66.0005 557.822 68.7355L561.269 66.7074ZM551.027 55.4488C545.071 50.1941 541.048 45.579 538.812 41.6039L535.325 43.565C537.877 48.1018 542.277 53.0628 548.38 58.4481L551.027 55.4488ZM538.82 41.6192C536.604 37.5964 535.478 33.0568 535.478 27.9544H531.478C531.478 33.6694 532.745 38.8831 535.317 43.5496L538.82 41.6192ZM535.478 27.9544C535.478 20.922 537.253 15.8015 540.526 12.2951L537.601 9.56579C533.426 14.0394 531.478 20.2682 531.478 27.9544H535.478ZM540.54 12.279C543.785 8.72597 548.588 6.81243 555.29 6.81243V2.81243C547.804 2.81243 541.791 4.97755 537.587 9.58189L540.54 12.279ZM555.29 6.81243C561.898 6.81243 566.546 8.72224 569.607 12.2428L572.626 9.61807C568.594 4.98128 562.69 2.81243 555.29 2.81243V6.81243ZM569.638 12.2774C572.825 15.7751 574.57 20.9842 574.57 28.2204H578.57C578.57 20.3833 576.679 14.0657 572.595 9.58345L569.638 12.2774ZM574.57 28.2204V32.0774H578.57V28.2204H574.57ZM576.57 30.0774H562.738V34.0774H576.57V30.0774ZM564.738 32.0774V27.2894H560.738V32.0774H564.738ZM564.738 27.2894C564.738 23.9224 564.098 21.0196 562.381 19.0564L559.37 21.6904C560.135 22.5646 560.738 24.2724 560.738 27.2894H564.738ZM562.419 19.102C560.713 17.0299 558.266 16.1124 555.423 16.1124V20.1124C557.367 20.1124 558.555 20.7022 559.332 21.6448L562.419 19.102ZM555.423 16.1124C552.56 16.1124 550.088 17.0032 548.39 19.0712C546.755 21.0636 546.108 23.8302 546.108 27.0234H550.108C550.108 24.276 550.679 22.5871 551.482 21.6092C552.223 20.7068 553.408 20.1124 555.423 20.1124V16.1124ZM546.108 27.0234C546.108 30.7642 547.097 34.2695 549.057 37.503L552.478 35.4298C550.891 32.8113 550.108 30.0213 550.108 27.0234H546.108ZM549.08 37.5402C551.098 40.7108 554.595 44.4077 559.429 48.615L562.056 45.5978C557.314 41.4705 554.161 38.0741 552.455 35.3927L549.08 37.5402ZM559.43 48.6156C565.467 53.8653 569.471 58.5086 571.611 62.5409L575.144 60.666C572.673 56.009 568.254 50.9876 562.055 45.5972L559.43 48.6156ZM571.611 62.5409C573.736 66.5467 574.836 71.3114 574.836 76.8984H578.836C578.836 70.7814 577.629 65.3495 575.144 60.666L571.611 62.5409ZM574.836 76.8984C574.836 84.2047 573.012 89.4981 569.655 93.0887L572.578 95.8202C576.847 91.2534 578.836 84.8428 578.836 76.8984H574.836ZM569.64 93.1059C566.4 96.6539 561.556 98.5724 554.758 98.5724V102.572C562.323 102.572 568.385 100.412 572.593 95.803L569.64 93.1059ZM610.228 94.5874L608.751 95.936L608.758 95.9441L608.766 95.9521L610.228 94.5874ZM604.642 6.14243V4.14243H602.642V6.14243H604.642ZM619.272 6.14243H621.272V4.14243H619.272V6.14243ZM621.134 85.1444L619.629 86.4614L619.651 86.4873L619.675 86.5123L621.134 85.1444ZM632.173 85.1444L630.714 83.7765L630.69 83.8016L630.668 83.8274L632.173 85.1444ZM634.168 6.14243V4.14243H632.168V6.14243H634.168ZM648.266 6.14243H650.266V4.14243H648.266V6.14243ZM642.68 94.5874L644.142 95.9521L644.149 95.9441L644.157 95.936L642.68 94.5874ZM626.454 98.5724C619.74 98.5724 614.931 96.6952 611.69 93.2228L608.766 95.9521C612.973 100.46 618.981 102.572 626.454 102.572V98.5724ZM611.705 93.2389C608.424 89.6451 606.642 84.386 606.642 77.1644H602.642C602.642 85.0162 604.584 91.3724 608.751 95.936L611.705 93.2389ZM606.642 77.1644V6.14243H602.642V77.1644H606.642ZM604.642 8.14243H619.272V4.14243H604.642V8.14243ZM617.272 6.14243V78.2284H621.272V6.14243H617.272ZM617.272 78.2284C617.272 81.5954 617.911 84.4983 619.629 86.4614L622.639 83.8274C621.874 82.9532 621.272 81.2454 621.272 78.2284H617.272ZM619.675 86.5123C621.467 88.4244 623.91 89.2724 626.72 89.2724V85.2724C624.742 85.2724 623.46 84.7018 622.593 83.7765L619.675 86.5123ZM626.72 89.2724C629.523 89.2724 631.959 88.4258 633.678 86.4614L630.668 83.8274C629.904 84.7004 628.704 85.2724 626.72 85.2724V89.2724ZM633.632 86.5123C635.474 84.5472 636.168 81.6212 636.168 78.2284H632.168C632.168 81.2196 631.532 82.9043 630.714 83.7765L633.632 86.5123ZM636.168 78.2284V6.14243H632.168V78.2284H636.168ZM634.168 8.14243H648.266V4.14243H634.168V8.14243ZM646.266 6.14243V77.1644H650.266V6.14243H646.266ZM646.266 77.1644C646.266 84.386 644.484 89.6451 641.203 93.2389L644.157 95.936C648.324 91.3724 650.266 85.0162 650.266 77.1644H646.266ZM641.218 93.2228C637.977 96.6952 633.168 98.5724 626.454 98.5724V102.572C633.927 102.572 639.935 100.46 644.142 95.9521L641.218 93.2228ZM678.636 6.14243V4.14243H676.636V6.14243H678.636ZM699.517 6.14243L701.497 5.86567L701.257 4.14243H699.517V6.14243ZM708.827 72.7754L706.846 73.0522L707.087 74.7754H708.827V72.7754ZM709.093 72.7754V74.7754H710.833L711.073 73.0522L709.093 72.7754ZM718.403 6.14243V4.14243H716.663L716.422 5.86567L718.403 6.14243ZM739.284 6.14243H741.284V4.14243H739.284V6.14243ZM739.284 99.2424V101.242H741.284V99.2424H739.284ZM725.452 99.2424H723.452V101.242H725.452V99.2424ZM725.452 28.7524H727.452V26.7524H725.452V28.7524ZM725.186 28.7524V26.7524H723.465L723.208 28.4539L725.186 28.7524ZM714.546 99.2424V101.242H716.266L716.523 99.5409L714.546 99.2424ZM702.31 99.2424L700.332 99.5409L700.589 101.242H702.31V99.2424ZM691.67 28.7524L693.647 28.4539L693.39 26.7524H691.67V28.7524ZM691.404 28.7524V26.7524H689.404V28.7524H691.404ZM691.404 99.2424V101.242H693.404V99.2424H691.404ZM678.636 99.2424H676.636V101.242H678.636V99.2424ZM678.636 8.14243H699.517V4.14243H678.636V8.14243ZM697.536 6.41918L706.846 73.0522L710.807 72.4987L701.497 5.86567L697.536 6.41918ZM708.827 74.7754H709.093V70.7754H708.827V74.7754ZM711.073 73.0522L720.383 6.41918L716.422 5.86567L707.112 72.4987L711.073 73.0522ZM718.403 8.14243H739.284V4.14243H718.403V8.14243ZM737.284 6.14243V99.2424H741.284V6.14243H737.284ZM739.284 97.2424H725.452V101.242H739.284V97.2424ZM727.452 99.2424V28.7524H723.452V99.2424H727.452ZM725.452 26.7524H725.186V30.7524H725.452V26.7524ZM723.208 28.4539L712.568 98.9439L716.523 99.5409L727.163 29.0509L723.208 28.4539ZM714.546 97.2424H702.31V101.242H714.546V97.2424ZM704.287 98.9439L693.647 28.4539L689.692 29.0509L700.332 99.5409L704.287 98.9439ZM691.67 26.7524H691.404V30.7524H691.67V26.7524ZM689.404 28.7524V99.2424H693.404V28.7524H689.404ZM691.404 97.2424H678.636V101.242H691.404V97.2424ZM680.636 99.2424V6.14243H676.636V99.2424H680.636Z" fill="black"/>
</svg>
