<svg width="325" height="101" viewBox="0 0 325 101" fill="none" xmlns="http://www.w3.org/2000/svg">
<path d="M5.453 6.14243H20.083V85.9424H44.156V99.2424H5.453V6.14243ZM91.7492 100.572C84.5672 100.572 79.0699 98.5331 75.2572 94.4544C71.4445 90.3758 69.5382 84.6124 69.5382 77.1644V28.2204C69.5382 20.7724 71.4445 15.0091 75.2572 10.9304C79.0699 6.85176 84.5672 4.81243 91.7492 4.81243C98.9312 4.81243 104.429 6.85176 108.241 10.9304C112.054 15.0091 113.96 20.7724 113.96 28.2204V77.1644C113.96 84.6124 112.054 90.3758 108.241 94.4544C104.429 98.5331 98.9312 100.572 91.7492 100.572ZM91.7492 87.2724C96.8032 87.2724 99.3302 84.2134 99.3302 78.0954V27.2894C99.3302 21.1714 96.8032 18.1124 91.7492 18.1124C86.6952 18.1124 84.1682 21.1714 84.1682 27.2894V78.0954C84.1682 84.2134 86.6952 87.2724 91.7492 87.2724ZM164.552 100.572C157.459 100.572 152.05 98.5774 148.326 94.5874C144.602 90.5088 142.74 84.7011 142.74 77.1644V28.2204C142.74 20.6838 144.602 14.9204 148.326 10.9304C152.05 6.85176 157.459 4.81243 164.552 4.81243C171.646 4.81243 177.054 6.85176 180.778 10.9304C184.502 14.9204 186.364 20.6838 186.364 28.2204V36.2004H172.532V27.2894C172.532 21.1714 170.005 18.1124 164.951 18.1124C159.897 18.1124 157.37 21.1714 157.37 27.2894V78.2284C157.37 84.2578 159.897 87.2724 164.951 87.2724C170.005 87.2724 172.532 84.2578 172.532 78.2284V60.0074H165.217V46.7074H186.364V77.1644C186.364 84.7011 184.502 90.5088 180.778 94.5874C177.054 98.5774 171.646 100.572 164.552 100.572ZM215.707 6.14243H230.337V99.2424H215.707V6.14243ZM261.244 6.14243H279.598L293.829 61.8694H294.095V6.14243H307.129V99.2424H292.1L274.544 31.2794H274.278V99.2424H261.244V6.14243Z" fill="#4C9BC8"/>
<path d="M5.453 6.14243V4.14243H3.453V6.14243H5.453ZM20.083 6.14243H22.083V4.14243H20.083V6.14243ZM20.083 85.9424H18.083V87.9424H20.083V85.9424ZM44.156 85.9424H46.156V83.9424H44.156V85.9424ZM44.156 99.2424V101.242H46.156V99.2424H44.156ZM5.453 99.2424H3.453V101.242H5.453V99.2424ZM5.453 8.14243H20.083V4.14243H5.453V8.14243ZM18.083 6.14243V85.9424H22.083V6.14243H18.083ZM20.083 87.9424H44.156V83.9424H20.083V87.9424ZM42.156 85.9424V99.2424H46.156V85.9424H42.156ZM44.156 97.2424H5.453V101.242H44.156V97.2424ZM7.453 99.2424V6.14243H3.453V99.2424H7.453ZM75.2572 94.4544L76.7183 93.0887L76.7183 93.0887L75.2572 94.4544ZM75.2572 10.9304L76.7183 12.2962L76.7183 12.2962L75.2572 10.9304ZM108.241 10.9304L106.78 12.2962L106.78 12.2962L108.241 10.9304ZM108.241 94.4544L106.78 93.0887L106.78 93.0887L108.241 94.4544ZM91.7492 98.5724C84.9533 98.5724 80.0517 96.6547 76.7183 93.0887L73.7962 95.8202C78.0881 100.412 84.1811 102.572 91.7492 102.572V98.5724ZM76.7183 93.0887C73.3544 89.4901 71.5382 84.2785 71.5382 77.1644H67.5382C67.5382 84.9464 69.5347 91.2614 73.7962 95.8202L76.7183 93.0887ZM71.5382 77.1644V28.2204H67.5382V77.1644H71.5382ZM71.5382 28.2204C71.5382 21.1064 73.3544 15.8948 76.7183 12.2962L73.7962 9.56466C69.5347 14.1234 67.5382 20.4385 67.5382 28.2204H71.5382ZM76.7183 12.2962C80.0517 8.73019 84.9533 6.81243 91.7492 6.81243V2.81243C84.1811 2.81243 78.0881 4.97333 73.7962 9.56466L76.7183 12.2962ZM91.7492 6.81243C98.5451 6.81243 103.447 8.73019 106.78 12.2962L109.702 9.56466C105.41 4.97333 99.3173 2.81243 91.7492 2.81243V6.81243ZM106.78 12.2962C110.144 15.8948 111.96 21.1064 111.96 28.2204H115.96C115.96 20.4385 113.964 14.1234 109.702 9.56466L106.78 12.2962ZM111.96 28.2204V77.1644H115.96V28.2204H111.96ZM111.96 77.1644C111.96 84.2785 110.144 89.4901 106.78 93.0887L109.702 95.8202C113.964 91.2614 115.96 84.9464 115.96 77.1644H111.96ZM106.78 93.0887C103.447 96.6547 98.5451 98.5724 91.7492 98.5724V102.572C99.3173 102.572 105.41 100.412 109.702 95.8202L106.78 93.0887ZM91.7492 89.2724C94.6959 89.2724 97.2336 88.3623 98.9769 86.2519C100.66 84.2148 101.33 81.3797 101.33 78.0954H97.3302C97.3302 80.9292 96.7372 82.6826 95.893 83.7044C95.1094 84.6531 93.8566 85.2724 91.7492 85.2724V89.2724ZM101.33 78.0954V27.2894H97.3302V78.0954H101.33ZM101.33 27.2894C101.33 24.0052 100.66 21.1701 98.9769 19.1329C97.2336 17.0226 94.6959 16.1124 91.7492 16.1124V20.1124C93.8566 20.1124 95.1094 20.7318 95.893 21.6804C96.7372 22.7023 97.3302 24.4557 97.3302 27.2894H101.33ZM91.7492 16.1124C88.8026 16.1124 86.2649 17.0226 84.5215 19.1329C82.8387 21.1701 82.1682 24.0052 82.1682 27.2894H86.1682C86.1682 24.4557 86.7613 22.7023 87.6054 21.6804C88.3891 20.7318 89.6419 20.1124 91.7492 20.1124V16.1124ZM82.1682 27.2894V78.0954H86.1682V27.2894H82.1682ZM82.1682 78.0954C82.1682 81.3797 82.8387 84.2148 84.5215 86.2519C86.2649 88.3623 88.8026 89.2724 91.7492 89.2724V85.2724C89.6419 85.2724 88.3891 84.6531 87.6054 83.7044C86.7613 82.6826 86.1682 80.9292 86.1682 78.0954H82.1682ZM148.326 94.5874L146.849 95.936L146.857 95.9441L146.864 95.9521L148.326 94.5874ZM148.326 10.9304L149.788 12.2951L149.796 12.2871L149.803 12.279L148.326 10.9304ZM180.778 10.9304L179.301 12.279L179.309 12.2871L179.316 12.2951L180.778 10.9304ZM186.364 36.2004V38.2004H188.364V36.2004H186.364ZM172.532 36.2004H170.532V38.2004H172.532V36.2004ZM172.532 60.0074H174.532V58.0074H172.532V60.0074ZM165.217 60.0074H163.217V62.0074H165.217V60.0074ZM165.217 46.7074V44.7074H163.217V46.7074H165.217ZM186.364 46.7074H188.364V44.7074H186.364V46.7074ZM180.778 94.5874L182.24 95.9521L182.248 95.9441L182.255 95.936L180.778 94.5874ZM164.552 98.5724C157.838 98.5724 153.029 96.6952 149.788 93.2228L146.864 95.9521C151.071 100.46 157.08 102.572 164.552 102.572V98.5724ZM149.803 93.2389C146.522 89.6451 144.74 84.386 144.74 77.1644H140.74C140.74 85.0162 142.682 91.3724 146.849 95.936L149.803 93.2389ZM144.74 77.1644V28.2204H140.74V77.1644H144.74ZM144.74 28.2204C144.74 20.9955 146.523 15.7934 149.788 12.2951L146.864 9.56579C142.681 14.0475 140.74 20.372 140.74 28.2204H144.74ZM149.803 12.279C153.047 8.72597 157.851 6.81243 164.552 6.81243V2.81243C157.067 2.81243 151.053 4.97755 146.849 9.58189L149.803 12.279ZM164.552 6.81243C171.253 6.81243 176.057 8.72597 179.301 12.279L182.255 9.58189C178.051 4.97755 172.038 2.81243 164.552 2.81243V6.81243ZM179.316 12.2951C182.581 15.7934 184.364 20.9955 184.364 28.2204H188.364C188.364 20.372 186.423 14.0475 182.24 9.56579L179.316 12.2951ZM184.364 28.2204V36.2004H188.364V28.2204H184.364ZM186.364 34.2004H172.532V38.2004H186.364V34.2004ZM174.532 36.2004V27.2894H170.532V36.2004H174.532ZM174.532 27.2894C174.532 24.0052 173.862 21.1701 172.179 19.1329C170.436 17.0226 167.898 16.1124 164.951 16.1124V20.1124C167.059 20.1124 168.311 20.7318 169.095 21.6804C169.939 22.7023 170.532 24.4557 170.532 27.2894H174.532ZM164.951 16.1124C162.005 16.1124 159.467 17.0226 157.723 19.1329C156.041 21.1701 155.37 24.0052 155.37 27.2894H159.37C159.37 24.4557 159.963 22.7023 160.807 21.6804C161.591 20.7318 162.844 20.1124 164.951 20.1124V16.1124ZM155.37 27.2894V78.2284H159.37V27.2894H155.37ZM155.37 78.2284C155.37 81.4738 156.043 84.2804 157.733 86.2962C159.479 88.3797 162.014 89.2724 164.951 89.2724V85.2724C162.834 85.2724 161.579 84.6578 160.798 83.7266C159.961 82.7278 159.37 81.0124 159.37 78.2284H155.37ZM164.951 89.2724C167.888 89.2724 170.423 88.3797 172.17 86.2962C173.859 84.2804 174.532 81.4738 174.532 78.2284H170.532C170.532 81.0124 169.941 82.7278 169.104 83.7266C168.324 84.6578 167.068 85.2724 164.951 85.2724V89.2724ZM174.532 78.2284V60.0074H170.532V78.2284H174.532ZM172.532 58.0074H165.217V62.0074H172.532V58.0074ZM167.217 60.0074V46.7074H163.217V60.0074H167.217ZM165.217 48.7074H186.364V44.7074H165.217V48.7074ZM184.364 46.7074V77.1644H188.364V46.7074H184.364ZM184.364 77.1644C184.364 84.386 182.582 89.6451 179.301 93.2389L182.255 95.936C186.422 91.3724 188.364 85.0162 188.364 77.1644H184.364ZM179.316 93.2228C176.075 96.6952 171.266 98.5724 164.552 98.5724V102.572C172.025 102.572 178.033 100.46 182.24 95.9521L179.316 93.2228ZM215.707 6.14243V4.14243H213.707V6.14243H215.707ZM230.337 6.14243H232.337V4.14243H230.337V6.14243ZM230.337 99.2424V101.242H232.337V99.2424H230.337ZM215.707 99.2424H213.707V101.242H215.707V99.2424ZM215.707 8.14243H230.337V4.14243H215.707V8.14243ZM228.337 6.14243V99.2424H232.337V6.14243H228.337ZM230.337 97.2424H215.707V101.242H230.337V97.2424ZM217.707 99.2424V6.14243H213.707V99.2424H217.707ZM261.244 6.14243V4.14243H259.244V6.14243H261.244ZM279.598 6.14243L281.536 5.64757L281.152 4.14243H279.598V6.14243ZM293.829 61.8694L291.891 62.3643L292.276 63.8694H293.829V61.8694ZM294.095 61.8694V63.8694H296.095V61.8694H294.095ZM294.095 6.14243V4.14243H292.095V6.14243H294.095ZM307.129 6.14243H309.129V4.14243H307.129V6.14243ZM307.129 99.2424V101.242H309.129V99.2424H307.129ZM292.1 99.2424L290.164 99.7426L290.551 101.242H292.1V99.2424ZM274.544 31.2794L276.481 30.7792L276.093 29.2794H274.544V31.2794ZM274.278 31.2794V29.2794H272.278V31.2794H274.278ZM274.278 99.2424V101.242H276.278V99.2424H274.278ZM261.244 99.2424H259.244V101.242H261.244V99.2424ZM261.244 8.14243H279.598V4.14243H261.244V8.14243ZM277.66 6.63728L291.891 62.3643L295.767 61.3746L281.536 5.64757L277.66 6.63728ZM293.829 63.8694H294.095V59.8694H293.829V63.8694ZM296.095 61.8694V6.14243H292.095V61.8694H296.095ZM294.095 8.14243H307.129V4.14243H294.095V8.14243ZM305.129 6.14243V99.2424H309.129V6.14243H305.129ZM307.129 97.2424H292.1V101.242H307.129V97.2424ZM294.037 98.7422L276.481 30.7792L272.608 31.7796L290.164 99.7426L294.037 98.7422ZM274.544 29.2794H274.278V33.2794H274.544V29.2794ZM272.278 31.2794V99.2424H276.278V31.2794H272.278ZM274.278 97.2424H261.244V101.242H274.278V97.2424ZM263.244 99.2424V6.14243H259.244V99.2424H263.244Z" fill="black"/>
<path d="M7.61967 1.89999V-0.100006H5.61967V1.89999H7.61967ZM22.2497 1.89999H24.2497V-0.100006H22.2497V1.89999ZM22.2497 81.7H20.2497V83.7H22.2497V81.7ZM46.3227 81.7H48.3227V79.7H46.3227V81.7ZM46.3227 95V97H48.3227V95H46.3227ZM7.61967 95H5.61967V97H7.61967V95ZM7.61967 3.89999H22.2497V-0.100006H7.61967V3.89999ZM20.2497 1.89999V81.7H24.2497V1.89999H20.2497ZM22.2497 83.7H46.3227V79.7H22.2497V83.7ZM44.3227 81.7V95H48.3227V81.7H44.3227ZM46.3227 93H7.61967V97H46.3227V93ZM9.61967 95V1.89999H5.61967V95H9.61967ZM77.4239 90.212L78.8849 88.8462L78.8849 88.8462L77.4239 90.212ZM77.4239 6.688L78.8849 8.05376L78.8849 8.05376L77.4239 6.688ZM110.408 6.688L108.947 8.05376L108.947 8.05376L110.408 6.688ZM110.408 90.212L108.947 88.8462L108.947 88.8462L110.408 90.212ZM93.9159 94.33C87.12 94.33 82.2184 92.4122 78.8849 88.8462L75.9628 91.5778C80.2547 96.1691 86.3478 98.33 93.9159 98.33V94.33ZM78.8849 88.8462C75.5211 85.2477 73.7049 80.0361 73.7049 72.922H69.7049C69.7049 80.7039 71.7014 87.019 75.9628 91.5778L78.8849 88.8462ZM73.7049 72.922V23.978H69.7049V72.922H73.7049ZM73.7049 23.978C73.7049 16.8639 75.5211 11.6523 78.8849 8.05376L75.9628 5.32223C71.7014 9.88099 69.7049 16.1961 69.7049 23.978H73.7049ZM78.8849 8.05376C82.2184 4.48776 87.12 2.56999 93.9159 2.56999V-1.43001C86.3478 -1.43001 80.2547 0.730898 75.9628 5.32223L78.8849 8.05376ZM93.9159 2.56999C100.712 2.56999 105.613 4.48776 108.947 8.05376L111.869 5.32223C107.577 0.730898 101.484 -1.43001 93.9159 -1.43001V2.56999ZM108.947 8.05376C112.311 11.6523 114.127 16.8639 114.127 23.978H118.127C118.127 16.1961 116.13 9.88099 111.869 5.32223L108.947 8.05376ZM114.127 23.978V72.922H118.127V23.978H114.127ZM114.127 72.922C114.127 80.0361 112.311 85.2477 108.947 88.8462L111.869 91.5778C116.13 87.019 118.127 80.7039 118.127 72.922H114.127ZM108.947 88.8462C105.613 92.4122 100.712 94.33 93.9159 94.33V98.33C101.484 98.33 107.577 96.1691 111.869 91.5778L108.947 88.8462ZM93.9159 85.03C96.8625 85.03 99.4002 84.1199 101.144 82.0095C102.826 79.9723 103.497 77.1372 103.497 73.853H99.4969C99.4969 76.6868 98.9038 78.4402 98.0597 79.462C97.276 80.4106 96.0232 81.03 93.9159 81.03V85.03ZM103.497 73.853V23.047H99.4969V73.853H103.497ZM103.497 23.047C103.497 19.7628 102.826 16.9277 101.144 14.8905C99.4002 12.7801 96.8625 11.87 93.9159 11.87V15.87C96.0232 15.87 97.276 16.4894 98.0597 17.438C98.9038 18.4598 99.4969 20.2132 99.4969 23.047H103.497ZM93.9159 11.87C90.9693 11.87 88.4315 12.7801 86.6882 14.8905C85.0053 16.9277 84.3349 19.7628 84.3349 23.047H88.3349C88.3349 20.2132 88.9279 18.4598 89.7721 17.438C90.5557 16.4894 91.8085 15.87 93.9159 15.87V11.87ZM84.3349 23.047V73.853H88.3349V23.047H84.3349ZM84.3349 73.853C84.3349 77.1372 85.0053 79.9723 86.6882 82.0095C88.4315 84.1199 90.9693 85.03 93.9159 85.03V81.03C91.8085 81.03 90.5557 80.4106 89.7721 79.462C88.9279 78.4402 88.3349 76.6868 88.3349 73.853H84.3349ZM150.493 90.345L149.016 91.6935L149.023 91.7016L149.031 91.7096L150.493 90.345ZM150.493 6.688L151.955 8.05263L151.962 8.04462L151.97 8.03653L150.493 6.688ZM182.945 6.688L181.468 8.03653L181.475 8.04462L181.483 8.05263L182.945 6.688ZM188.531 31.958V33.958H190.531V31.958H188.531ZM174.699 31.958H172.699V33.958H174.699V31.958ZM174.699 55.765H176.699V53.765H174.699V55.765ZM167.384 55.765H165.384V57.765H167.384V55.765ZM167.384 42.465V40.465H165.384V42.465H167.384ZM188.531 42.465H190.531V40.465H188.531V42.465ZM182.945 90.345L184.407 91.7096L184.414 91.7016L184.422 91.6935L182.945 90.345ZM166.719 94.33C160.005 94.33 155.196 92.4527 151.955 88.9804L149.031 91.7096C153.238 96.2173 159.246 98.33 166.719 98.33V94.33ZM151.97 88.9965C148.689 85.4027 146.907 80.1435 146.907 72.922H142.907C142.907 80.7738 144.849 87.13 149.016 91.6935L151.97 88.9965ZM146.907 72.922V23.978H142.907V72.922H146.907ZM146.907 23.978C146.907 16.7531 148.69 11.551 151.955 8.05263L149.031 5.32336C144.848 9.80503 142.907 16.1295 142.907 23.978H146.907ZM151.97 8.03653C155.214 4.48353 160.018 2.56999 166.719 2.56999V-1.43001C159.233 -1.43001 153.22 0.735122 149.016 5.33946L151.97 8.03653ZM166.719 2.56999C173.42 2.56999 178.224 4.48353 181.468 8.03653L184.422 5.33946C180.218 0.735123 174.204 -1.43001 166.719 -1.43001V2.56999ZM181.483 8.05263C184.748 11.551 186.531 16.7531 186.531 23.978H190.531C190.531 16.1295 188.59 9.80503 184.407 5.32336L181.483 8.05263ZM186.531 23.978V31.958H190.531V23.978H186.531ZM188.531 29.958H174.699V33.958H188.531V29.958ZM176.699 31.958V23.047H172.699V31.958H176.699ZM176.699 23.047C176.699 19.7628 176.028 16.9277 174.346 14.8905C172.602 12.7801 170.064 11.87 167.118 11.87V15.87C169.225 15.87 170.478 16.4894 171.262 17.438C172.106 18.4598 172.699 20.2132 172.699 23.047H176.699ZM167.118 11.87C164.171 11.87 161.633 12.7801 159.89 14.8905C158.207 16.9277 157.537 19.7628 157.537 23.047H161.537C161.537 20.2132 162.13 18.4598 162.974 17.438C163.758 16.4894 165.01 15.87 167.118 15.87V11.87ZM157.537 23.047V73.986H161.537V23.047H157.537ZM157.537 73.986C157.537 77.2314 158.21 80.0379 159.899 82.0538C161.646 84.1373 164.181 85.03 167.118 85.03V81.03C165.001 81.03 163.745 80.4154 162.965 79.4842C162.128 78.4854 161.537 76.77 161.537 73.986H157.537ZM167.118 85.03C170.055 85.03 172.59 84.1373 174.336 82.0538C176.026 80.0379 176.699 77.2314 176.699 73.986H172.699C172.699 76.77 172.108 78.4854 171.271 79.4842C170.49 80.4154 169.235 81.03 167.118 81.03V85.03ZM176.699 73.986V55.765H172.699V73.986H176.699ZM174.699 53.765H167.384V57.765H174.699V53.765ZM169.384 55.765V42.465H165.384V55.765H169.384ZM167.384 44.465H188.531V40.465H167.384V44.465ZM186.531 42.465V72.922H190.531V42.465H186.531ZM186.531 72.922C186.531 80.1435 184.749 85.4027 181.468 88.9965L184.422 91.6935C188.589 87.13 190.531 80.7738 190.531 72.922H186.531ZM181.483 88.9804C178.242 92.4527 173.433 94.33 166.719 94.33V98.33C174.191 98.33 180.2 96.2173 184.407 91.7096L181.483 88.9804ZM217.874 1.89999V-0.100006H215.874V1.89999H217.874ZM232.504 1.89999H234.504V-0.100006H232.504V1.89999ZM232.504 95V97H234.504V95H232.504ZM217.874 95H215.874V97H217.874V95ZM217.874 3.89999H232.504V-0.100006H217.874V3.89999ZM230.504 1.89999V95H234.504V1.89999H230.504ZM232.504 93H217.874V97H232.504V93ZM219.874 95V1.89999H215.874V95H219.874ZM263.411 1.89999V-0.100006H261.411V1.89999H263.411ZM281.765 1.89999L283.703 1.40513L283.318 -0.100006H281.765V1.89999ZM295.996 57.627L294.058 58.1219L294.442 59.627H295.996V57.627ZM296.262 57.627V59.627H298.262V57.627H296.262ZM296.262 1.89999V-0.100006H294.262V1.89999H296.262ZM309.296 1.89999H311.296V-0.100006H309.296V1.89999ZM309.296 95V97H311.296V95H309.296ZM294.267 95L292.33 95.5002L292.718 97H294.267V95ZM276.711 27.037L278.647 26.5368L278.26 25.037H276.711V27.037ZM276.445 27.037V25.037H274.445V27.037H276.445ZM276.445 95V97H278.445V95H276.445ZM263.411 95H261.411V97H263.411V95ZM263.411 3.89999H281.765V-0.100006H263.411V3.89999ZM279.827 2.39485L294.058 58.1219L297.934 57.1321L283.703 1.40513L279.827 2.39485ZM295.996 59.627H296.262V55.627H295.996V59.627ZM298.262 57.627V1.89999H294.262V57.627H298.262ZM296.262 3.89999H309.296V-0.100006H296.262V3.89999ZM307.296 1.89999V95H311.296V1.89999H307.296ZM309.296 93H294.267V97H309.296V93ZM296.203 94.4998L278.647 26.5368L274.774 27.5372L292.33 95.5002L296.203 94.4998ZM276.711 25.037H276.445V29.037H276.711V25.037ZM274.445 27.037V95H278.445V27.037H274.445ZM276.445 93H263.411V97H276.445V93ZM265.411 95V1.89999H261.411V95H265.411Z" fill="black"/>
</svg>
